<mxfile host="Electron" agent="Mozilla/5.0 (Windows NT 10.0; Win64; x64) AppleWebKit/537.36 (KHTML, like Gecko) draw.io/25.0.2 Chrome/128.0.6613.186 Electron/32.2.5 Safari/537.36" version="25.0.2">
  <diagram name="Page-1" id="YM0G4pMuooQFcVsuSd4W">
    <mxGraphModel dx="1313" dy="819" grid="1" gridSize="10" guides="1" tooltips="1" connect="1" arrows="1" fold="1" page="1" pageScale="1" pageWidth="850" pageHeight="1100" math="0" shadow="0">
      <root>
        <mxCell id="0" />
        <mxCell id="1" parent="0" />
        <mxCell id="P-TrzOALhq4Lv73_lyAl-1" value="" style="shape=image;verticalLabelPosition=bottom;labelBackgroundColor=default;verticalAlign=top;aspect=fixed;imageAspect=0;image=data:image/png,iVBORw0KGgoAAAANSUhEUgAABKsAAAGiCAYAAAAoSUXnAAAAAXNSR0IArs4c6QAAAARnQU1BAACxjwv8YQUAAAAJcEhZcwAAEnQAABJ0Ad5mH3gAAKivSURBVHhe7N1/eFTlnf//p1sXkIQhYIAAgSRkUEGUxAhUUkWMdMnGtitQ0fAp1KvESBF3dRdxQfhyIbIgrXZFFiP0stIlFgux7TYNLUT8UaCAlEARaplAosH8IEIy+SGwun7/OGdmzpyZJJNkAgO8Htd1rsu573vOOXPmnMHzzv1+n2sSEhK+QkREREREREREJAL8nb1BRERERERERETkUlGwSkREREREREREIoaCVSIiIiIiIiIiEjEUrBIRERERERERkYihYJWIiIiIiIiIiEQMBatERERERERERCRiKFglIiIiIiIiIiIRQ8EqERERERERERGJGApWiYiIiIiIiIhIxFCwSkREREREREREIoaCVSIiIiIiIiIiEjEUrBIRERERERERkYhxTUJCwlf2RpE2Tcrm10+nEu1taGDvymUs3G4ZM+cxiqclQP1BVkzJp9jSBU5WFOQyrrfndZD3E2Q7QdfVGeZ+nN5GRm741tp559mxrQoKErj3VXufVQ6ZBQu5/fRmns192t4p7TVpE/OeHk8MLn6bMYmD9v5LIDXvJPc5fa/LtiTx83XWER00ZzuLp1lWHPCZzXOrd+e22fH978S5ndHE4fnNHFndj+xIuqw74pF6yqbUAeBq8/dAREREROTKcJXPrHqQFbmvsyH9DnvHlWXgMm5eXETibfaODvIEkFzbyMiYby5BAk2tcrFwivneLeX2Tp/t+XzH3MYvXfbOK9WX5L9ZhdMdy+YuvjGNW36IxcXbSbV3XGFS806yuGATcfaOy8DB3CSezUji2ZW7MUIWYWAGqur2rDDWnZHEs10UnOuS/W9LcRRFpc2Mn1/PKnvf5SSjicNT6nAVJJA4WYEqEREREbl6XOXBKumIjAlOomlg75Y2piyse9kIRoV1JtSVb9XaCsY7Ytj8QBTr7Z3StbbPYE0XBm4iRWqKE3Dxx2daO8PWUzTFCDSFNhMqsiyYG89udx3T32wix955mci5sxnHRQhai4iIiIhEGgWrpIPO8HG7ZlJJSDKayEwGV0FvFtj7RMKpvoZKe9sV5Wtk58XidtQyb+mX9s6wc8woYty8ZXS3d3SCs1+zvUlERERE5KrQyZpVd/BU9qOk9PK8bqakYA7PnzZepaevY+6onlBRRHbhL7zvCmjv9yQbpgznbwVzODX2dbLizYENh1ib/wK7vO/EHDuant6GcgrzlrDJ+9rcp/oisvcN8hvbfOQVZu/a49t+Czzj2m82iYunMsD7upRjzz6Gu9UxTZRtmEa1967R6Kcwk8r+W0gZE2W2B1uXcYM0YpjvdeP+5/lw286gfXbVhZmU/dne2raM5UtYeMcZfpnxMq/YO7HUqvJwtVEPas5jFE/rG7xmlcWjeav5br9WalaFuN1H81bzXWupHloee7GtWlvO9H6xPNfKrCp7DSAAXLa6Pt7aSx5uPlg5mqLtACv5XvF0En2jbVquXeRRt2cFa1qdldNZ9n207r8hNe8k97GZZ7cM8fus3ppIAcfApn4366fMoIogY619NnHLD5Fzh8PXEPTYj8K1cjRV0yzfVbB1tlk3ysLcx7qQaz61LDXvJPf1C7I/EOT7Djz2Pu0YG8L+d+zcbuWYea6p5Bg2T+7iAPDAZdw8ewzRLfxWd0QovwciIiIiIleiTgSrHmRFbiaJlkCUEQTCL2A1I+t1suItQSxPsMkawLIGoLztLa2/J2XvzWLhsRbW7xdAs7SPWEb+XQl+7/Vso3+Hg1MWt73MuKxkOLGVvZs2mI2zSZwBZZ7X5hhrQKn7ZCMg5QscWYJZ3nVNZMC8p0hkPyVrlnDeXLsRjPK/MXLM2MJ1b1uDX76bqKYOBqcgSCDILmiwJ8Ti5WEIVhkBNCzryCCveDJOv/0y9wfrOkLcx4vCKKre/0/x3Lr0a/ZOX2AAa5AhWBHqlXyvYAjbLYEIIwgQGEgwAi81rd7sp+YdIm6L5X2WekddErAKsn5PgMhanNsX2PB9LmMcAZ+z9eCMv5bHegIz1uCIGVRrIfDl+wzmOGvgZdIm5k37hDXe7y3Y+i1CCPa0JiDIZhP0+5yzncXT+gccT0PgZ2rp+ENb+x/iuW2uA+u+BhxHG7NA+cUpTu75/bb/EaJjFKwSERERkatVh9MA09MnkEg5hZYZU7t2baSkoScpYx/0tm0qfMVom/Qk6dzBU5NG07PhEGst7/Pym4H1CwqPNEP8SGYA8CBZo3rSfOQVS7AJNhUWUYb/Ng3lFOb5gmYcO0oZ0L9vVxRTn8iAdHugCmCDL1BlGeMJVAGc37aWsjoYkG5LH6nbT4n3vTupO94EMX0tYyZyXV/gRInfX/Ddmzp/gxSUp/5UxnxW7GkAyvmlt7j6/Esc6MnggTt60bgn3xLsKiZ3Szk401kxyWyaM5lxvRvYuy4w2NVuOS9RWFjY4vJSR4rkPHIOJz058n6wQBUw5wFu7+3mg3X2IIrd0/zcFmg5uGU3dThwTmj/jh3MtQUe1r3JB/UQM/LuLihYnkPmJCe4NvsFTqqeeZkP6iFxkr1Iun8AruqZIso6+Dnb5Dn+K62BpKf5+RYX9B7PpDl+o22f4WmOuIB+Q3z7v32GLcCynqLtLsDJKPu6wqDqmdHeYuq/dZkzvbzF1ZMCA1VtiFueSSIufmv5DMb35OD2aSv9xrYp1HPb2Z8Y3LjetexrwHG0ebUHLqD/oI6kAs4mcXER41paZsy2jd9A2bPPU1YXReLsMD7UQkRERETkKtPBYNUdpCf0hIqjlvQ7gD2cqgd6DyLd0vb89kM09xrN3NxHSenVTMl2W2qfqeyEfwBr15nTQD8G9wNGjCQRqDljnwH1Cz6ssG8TaKijzPqaX7Awb1bnZ1AFM3AisTFQfcwaqLIxxzR+VmrrCBaIgsbjO70zqILbyedngGFTg9wwXWXmjMBJAx++a3tcoOsMjfTiejOt6NGUBKh3UWyf8dER6x8nKyurxeXx9t33A5Az6ALQjU9aiKSlpjih/ggHO7L/2z8J45PY1lPlCQKH26S7cfaGutP262Q9B4+6oXd/BlqbA45HKbX1ENMv2doYFkZR8hqq7Md/3QHKgJjB/gGyspJWAigtcdWE8XvqSjmkjnSA64BtBph5bliDciEI+dx21VCHg9ufPkSmJwjdpmupcYOj3xf2jhBsoOzZTPa2tPj9ccJjJ9VrMjl2AgZkFXHz5In2ASE6T1oyuI/20KwqEREREbnqdDBYlUBMLyA+k/zc1/0Wb70pq9Mv8NoRo1Bs85GNvtlO7dZMXa29zdQrppUaPF1sYF+iaeLzEGY0NdX4ZlX5i+M6v7vwtrk3ZVKyv8kIWJl/6e/4jdHlK2NwX6AX455eTXGxZXk6lWj74KtE3PJDLC4+aVlaq1HVhkmbmOe3riB1hcKs7lRLt+f9iQs5SNEFWilK3pEAWWqe/3Fd3FqNrYiSTGxvwDnddp518bmxfQZrMjZThoPbn/Zsczup9nERJHrMVFpOvgzmPDu2lVO27RwHJie0kBIsIiIiInJl62Cwqpy6BjNtL29W4GIvij5imVFrqqKcnqMeZcUIa2eYBMykuogqz9BIVLuDTf6qQgp22Z3fNs38K//zlNVB9JinrrqAVfGpM0ADe1da0hItS25AfZww6Io0wDCx1nfypHg9m7G5Y9eHp/6Sa7NlXWYa2SURZGZThAicDdY6Xx0xy/e0cvdlMrPKmMGG7bzwLgH1vsLpaX7u2c4WI23yvi4LWLU3DRCzxqDxcIvqwkz2trvYenfunZxA4uQepG0r5/BFeJKhiIiIiEik6WCwKli6X0seZMVdCVBRxMLCIkoaIPGuZWYdqtbNGJYADcfZddpTc6onN9xgrzn1IDfHQ3P5nqCpha0zgm49Y1opHB6Kyo9pAgaMCHbjYqrcSW1dsDETiRkeFVB7qv12Ur3GDFhdb5vhYe5fVP8rNIhlS/dryfHTDdC7L8OtjXMmM87ylLuQdUEa4PpPuwEXGJJh7zFUng6SBjfnAb+n9HnTs+p3sz2EIF3VqZpWZyvFTRhFDG4+2BJiStv3f8TWrVvZ+toi7rT3hWL7O7jqITHFXvOopbQzGzON0J6CF/TYtdPBEhf0HkWq/VjNSSPRXkepTSsZ5QRcRYGFyC8LHUv3a0nQ7yfg3A5i3SQzYNXyOQxf0N8B7tPX2jtC0N40wNkkLn6KxJgmyjZ04oEWAHTnQCk4Rp7jEsa+RUREREQuiQ4Gq2DTPrMOVZa9sLnVHTyVnWkpxG7WryKBrFbfZ8zGyoqHsoOeWVpGwfWeo2byVD/fsBlZxvp3dqgWlRl0i5/gt87220ClmY7nP6tpNonev7zvpHpXKQyb6ld0t/vkucaNzdv2m562zCZxnq0oe4t1sUr5vK4j6SiXie35FLnAOW2Jr5h6EMXvumgkgczlZlRrUja/ntaXxnr7yEvk1R64aGbUncFnUlS9e4Q6nHxjuXnrOmkT86b1p85v/80ggjWoMmkT81pKA/TUAGqhILYRzLIWLM8hs6DlVK87B/Y3/sNxG9/5vr03FGaRced0vmcpMh63/DGjAHerQbMcMueMJyZIoM74HJZj1xHr3jSKh8+xFnlfyfemOTsQdDJnJjnTfDOC5my/jNIAzaL9vceTkxf83GmP0M5tY9ag9bygtVpiHo+cwwnUfNrF6XQDl3Hz4qkMoJRjz3bRgy5ERERERK4S1yQkJHxlbwzdg6zIzQy4CS57bxYLj8GMLKOGVfORV/wKm6enr2PuqJ6+p//1e5INU0bT028tzZQUWJ7mZ/K+16PhEGv90g7v4KnsR0nB3t4Sc3wvX4t9f0N228uMy7LOairlmD0FpM0xxqPPo/Y/7/fUwO6Tt5Aypsp/7MBl3Dx7jF9dpurClv6a73mkuk/LY1uXsXwJC+84wy8zXuYVeyfwaN5qvttCMMO1xUzLm5TNr1uqKVV/kBVTjCf2GduyfDkWjXvy+M4zvny0oGMt6wJgzmMUT/PMpCvnlxkvQ95qvsu2S/xEQ0Obj6qfs53F0zwH18VvMyZB3knuYzPPep+IlkNmwULLrBQXv804wKji6cTsWRH41De/deJdr2cGkyet0KNsSxJHUk5yX7/drA9I95rFj7Z+myTg5P9M5d9+5tcZujb2CW8anaUBMy2thSfD2T8H9b79D+izqPM7ZvZja+/3pU7WbUni55agWWqe/Zit5HvWIGL9btavg+/6vdc2xk/gMQlV4L5YeFI/7e34HzND8P0r68j+h3RuB/neA/bJX5vXVJg4ZhQxou9+StYsaePhGKG7WPsuIiIiIhJpOhmsChMzWFVjBrlErloZTRyeXwt/ir9sCyvP+tFWvp3UxJ9fmslz79p7w6fVgIsIvuuppiCBe1+1d0Y+BatERERE5GrV4TRAEekCxVEUlYLj62fIb6F2VUT7/o/4dhI0fbC+SwNVIm37kvzcWhzuWDZfhoEqANdp//nGIiIiIiJXCwWrRCLMgrnx7HY3M35+PavsnRFrFj/aupWt30ri5P9MZeZ/vG8fIHJRrVpbwXhHDJsv41lJ6z/tBo5apj9i7xERERERubIpDVAkIp1nx7YquEzTly4GpQHSRk0oizbqOl1xMpo4PL+ZI6v7kX3pS9F1ziP1lE2pA8Cl3wMRERERuUpERrBKREREREREREREaYAiIiIiIiIiIhJJFKwSEREREREREZGI0aFgVVJSEj169LA3i4iIiIiIiIiIdEqHglUiIiIiIiIiIiJdQcEqERERERERERGJGApWiYiIiIiIiIhIxFCwSkREREREREREIoaCVSIiIiIiIiIiEjEUrBIRERERERERkYihYJWIiIiIiIiIiEQMBatERERERERERCRiKFglIiIiIiIiIiIRQ8EqERERERERERGJGApWiYiIiIiIiIhIxFCwSkREREREREREIoaCVSIiIiIiIiIiEjEUrBIRERERERERkYihYJWIiIiIiIiIiEQMBatERERERERERCRiKFglIiIiIiIiIiIRQ8EqERERERERERGJGApWiYiIiIiIiIhIxFCwSkREREREREREIoaCVSIiIiIiIiIiEjEUrBIRERERERERkYihYJWIiIiIiIiIiEQMBatERERERERERCRiKFglIiIiIiIiIiIRQ8EqERERERERERGJGApWiYiIiIiIiIhIxLjig1Uzsl4nP9eyZD1oH3IJTeS5e4t466aJ9o6rwCriN5Yx/Ikce0fkuO1lxi0uYty8ZXS3910Mc7azuPgQmZPsHRfZoJfZfv/L5NrbO2vQy2y/v4jt9xexbpC9U0RERERERK5WV3SwakbW62TFN1NSMIvsPHMp/IV92CWTO/YpxvYqZdtfd9q7IthsEhcXcfPkqzHAdjlZyfeKTzJveRiCgZ9uZV9DMtPuXcY99r6O6rWMt8Yl49qbyaS3MpnzqX2AiIiIiIiIXK2u4GDVg9wcD1S8y/On7X2X3j03bWHa4Cb27XiMPHunRIY/P8beZzPZu2YJ5+19V5WdLNqxFVevMfz72Nn2zg65Z/BIohv280sFqURERERERMTmCg5WGZrryu1NEWA23x0RReOxtSxqsPeJRKINzNlbCoOnhiVlb7gjyt4kIiIiIiIiAsA1CQkJX9kb25KUlERlZSXnzp2zd0WQB1mRm0n/I68we9cee6fJGJPofd1MScEcv5lY6enrmDvqNIV5RQzOfpSUXmZHwyHW5r/ALt/QkN1z0xb+fUQVW95qfVZV98lbSBnju6lv3P88H27zTxl0zChixDDfa/sYx4wiRrCVvW8P5ebZY4g226sLMyn7s3cYBNkeJ7ayd9OG4H029u22bRXxG6dz3cHnOP7ieqMpPZ/hueOJAmq3JVKR7xmbQ+zaRcR7jj1uKvJupXaXtc+Fa+a9NHqG4Fsf1m2E4raXGZeV7HttOQ4+s0lcPBUKM6nsbz02pRx79jHcttEhmbSJeU+PJ8av0c0HK0dTtN3zOofMgoXc3ts3om7PCtY8Y3y+uOWHyLnD4eu0sY4FSM07yX1OywDXZp7NfdrSYDWR5+59irHs5z92LOFte3c75I4tYpqj8+sRERERERGRK88VFqy6g6esAaUAlmDUiGXk35VAsyWYZQSmelL23iwWHjPe4WkDLGPNIFdFUQdqYJk3/O6tTNpnD4B4TGTAvKdIjGmibMM0qiuN1u6TXybm0GPmayNYMqBuPyWeNLWBy4yAlCW44gtm+YIoRuAJ27qDtw2smWYLahnbjWp3cMrOFqzyBKoadnN0bjYXbONiP95MyTMLAOj2xGFGpuILWGXvIGWy0xbgCjKu3czv4UzLwaoBWINZ5ngs30mo5mxn8TQnZVuS+Pk6a1t/v2BVat4h4rZYglfm++xBKKNm1XRiAtp94pYfYtKp0b7teYJlrQSsjEAr7NsxrVOzAhWsEhERERERkZZcYWmAe3g+31NMvYgyM8DkLa6e55k1dQdPpSZARZHfrKtduzZS0gCJqU+Sbl0tUPbeLMvYX/BhBdB7UMC4NvWayMhe4KqwBz8sbpsaEKgCOL/NE6iC7pMnM4BSjlmDIpVLcO1vgmGTGTDQ9z5oomyDb7bP+UNHaSSK6yxjul8fBXVHqfPbnj1Q1VVWER80UAXdnsgkFhcuM1AFcOHFNVQ0OIjPXGU05B+gFogdab4GIAeH0wEfF3UwUBWiuv2UeANZO6k73gQxfdv59MAcMic5wbXZFzhqwcFc6ywrYN2bfFAPMSPvJs7SHIqqZyyBKoDtM/ijC3CmkWpptnr7lHHu9G0xICwiIiIiIiLSOVdYsCpE/e7ghl7B6lntYVd5M/SKsaQGAjRTV+vXwKbCWWR3JA2wV1+iaeJMK7NSHCOSAwJH/iYSMzwK6s4EzN4JFohqfV2G8581QcwYUuYta2egpbMmGjOnggSqfAGnA/7pfazn3FmgzxC6AbCAuo+BoWneNEfSJ9KnF9Qe9QW5ukLj8Z0B30G7TbobZ28oKwk+m6l166kK4wMEKk+3kcDY8DFVQJyjM0+DnE3KYGis2KlZVSIiIiIiIhLg6gxWmWrOtFTLqh+D+9nbLpaJXNcXOPNx20GQVsZE9W9fMOH8tmnsLSw1AlaLixi3uIhxM8Lz5LfWRKWOJxbg7Ce2QBWAkx69gKHTSdlY5rc4h/qPbCzaTRNOYrKN193GjiKqYTc1lrTAK8KkTcwrPsliy+JXc6pdVvI927paq3fVebNZd38R2+9PoeStTO7/a2fSSEVERERERORKdVUHq1p2mlNhnK3SPjv5/AzQd2inZjg11XQgEPDnx9j7bCZ7n83k2Alg2NQuD1g1HXyOkm0uIyC13JrGB+DiXAPw8WZKZiYGLtaZWLt2crbBkwpozMhqcu0MEgC7jFlrSmUkeZffuuwDQ2HUtEqs3816y7rW72ljZlWnbGDOW5lMequElPuLeOum9gVURURERERE5OpwdQarTu/hbw2QOOxBW8cdpCf0hIqjbLL1hE3DmTZr/hgpeSOJ8as7ZWXWRhqWgn0eTPfRI4mmlDOdrDXl3mQGrAKCZqV8XgfR11ueltdZ+fdy9KAbhk5n+BM5lg57ul9r1lO7y2WkAqZPpE8vN2f3BS8sHnG2f0IdEDPY+tnNOlYWcRNGEYObD7aEki5YSm09xPRr4Xuak0YiULZ9BlX2vtb0GkocUOXuQDDUawMlpyA6fiL32LtERERERETkqnd1BqvYw/MHyyE+kxUjfK3p6TNJ6dVMyb72PuGvHRp2crQBnPEtz1g6v20b1USROPtlv2BU98kvewunG2OSGWGd+TRwGc4xUTTu3+otph6aiQyY578tmE3fYcFSDc2ZXwFF3Dvnwou34voYolIXEW+m8uFJ7+s1npEBs66CyD9ALU6cueOJ6urC6mH1NEdcEHPHA97C5ql5C7kdN3WWUVWnagAHzgmeoFYOmQUtpQGataycmWROsvcBrhrqgMSUld6m1Ly20wDvGTyyzZprIiIiIiIiIp1xlQargGNLyH6vnMS7Xic/11jmjjpNofeJgV1lJ8UVTTA4hVx7l9cGyp59nrK6ZEZ46kctLsLJVsvTATdQ9uxWqodN9faPmz2GpsJMPtzW3lkvO6leU0Jfy7bGLZ5K1P7n2et90p2Pe9PzlNVFkTjbN/7myZ1P6Wp85jkqGiB2cplvhtWubI7P3ExtkLpV1qCWwSy0TucKqztmeD7XUyTGmOmQ5udMvM0+OjwO5q7gg3on95m1o75xegXPrjviP2jdJNbvcRNzx0KzxtRCYre3nAZorNPB7U/7alLNW24e1+0zWLPFBc7p3r5vnF7RRhrgRDLio+DUNhYpWCUiIiIiIiJd5JqEhISv7I1tSUpKorKyknPnztm7JCSzWXf/VJyntjJpX2AwSDouenkZzqEuXDPvtT1BUDpt0MtsHxfHvh3TOh2syh1bxDTHfv5jxxI9EVBERERERET8XL0zqy6pDfzyWBMMnsq6QfY+6bhVxAyFpoObFagKu9msG5cctllVx91N9iYRERERERERULDq0nn7r9PYcgqc47bwXCvF1iVUOcSunU5sw27KX7xMCqtfNiby3L1TcTbs5z/CNBPwbXcV9BrDdxWsFRERERERERsFqy6hvH3Ps68hipGDO1/v6eq1iviNZaRsXEQ8uzk6N5sL9iHSOYOmMrZXKVvCmbL36WNM2luKc1wR2+8v0gxDERERERER8VLNKhERERERERERiRiaWSUiIiIiIiIiIhFDwSoREREREREREYkYV1SwKikpiR49etibRURERERERETkMnFFBatEREREREREROTypmCViIiIiIiIiIhEDAWrREREREREREQkYlyTkJDwlb2xLUlJSVRWVnLu3Dl71yUVqfsVoN+TbJgymp6UU5i3hE32fosZWa+TFW9pqCgiu/AXlob2WsUXS6fD/yRy7QF7H9y95E3mj4ui9FdZPL7e3nsJTdrEvKfHE4OL32ZM4qC9/xJIzTvJfU7f67ItSfx8nXVEB83ZzuJplhUHfOYcMgsWcnvvzm2z4/tvbv/0Zp7NfdreGT6Tsvn106lEU84vM17mFXt/OHm3Zao/yIop+RT7j+oEJysKchl3ehsZueFba8u+JP/NCkYdjefWpV/ztnZ74jAjU2twzbyXRr/xXSijicPzmzmyuh/ZrX30tB2c+xZ0W3pveP+KkraDc98yTvRrW/jdExERERGRyBLWewIJLyNQ1UxJwSyy88ylU4GqHL78l+l8Ubebr7V6w9bEmVJ7W9dIzTvJ4oJNxNk7LgMHc5N4NiOJZ1fups7e2VFmoKpuzwpj3RlJPNtFwbku2f/L1fZ8vpMxn4yM+fzSZe+8/KxaW8F4RwxFlkDVJVMcRVFpM+Pn17PK3md1YDN/X+fkwr/k0+6/oLRkUD7/+y0n1/5PIj2WKlAlIiIiInK5ULDqUjj9ArPzZpHd6qyqB7k5Hqh4l+dP2/s65v++t4j/jXHR7SfZXGPvjHTbZ7CmCwM3kSI1xQm4+OMzrU1rW0/RFCPQFNpMqMuUN4DUxbOqrjA5S08zPbknu1f3ZoG98xJZMDee3e46pr/ZRI6902s9X/vJZq6NGc/577Ua1grZV6NH8WWbwXkREREREYk0ClZFuOa6cntTxwzK58tkuPZ/Wk+xeaeyyt4kF1t9DZX2NpGQnGf615tx/6lv6yl3F93XyM6Lxe2oZd7SL+2dFgu49n9ckDydL9Lsfe33VazD3iQiIiIiIpeB1uIWEm79nmRD7uvke5bsJ0m3j+ki/5cxPkwzDFbyveKTLPYuh8ic5D8iNe8ki/NWGnWmLGO/N8ccYGm/zwn0Hk+OdZ3WtEDbOlpLGYxbfsiyX+Y+WE3axDxzf1Pz2ljnnO3+6yreTqp9zEWXQ2aBdZ8Cj71Pe8a2ze94FRv1sgLYv6uOHrNJ2fy6eDXFnqUgmwz7GODRvNUU52UEjM/znGd+MsizrrP4MR61D2mTsY5fL7fWE4OM5UuCru/RPOv2chkX7JiFuF/GNizj8oIdEchZ6sZJ+9L/opeXkbKxjJS1+XSztHd74rDRbi7Dn7DMicreEdhmMta3w1f/y6M4iqJScHy9MYR0QPjizjCmA4qIiIiIyGVFwaqLyZv+N4vCCnsnwB08le0JZmWSCPQc9agvuJW7jqf62d8TilX8XzJ87aOdnUv/m7OdxcXTibHUU1q/B25/2hKI8nBOZ/HTo3Ct9IxzkzjNDJh4U/qS+K0LqN/Nem99piSenTID7/wu+9igjMBMzh01/Na7ns2UOacHCUQ5uP3pk3zjtOczbKas93hyrIGtSZuYl3LAUjNqBR/UO7mvo8GXNliDbMGCd/OWewICvvS/Z7e0eDDMgKJZAN3ve+pIwMo4tvf1s35HK/ig3jbMLICPtdbWyhq+YQ8YhqI99aOckyl+ui9F5vgVexpwTlvCCuvnnPMYxcWTcbq2kWGOy8g4RmoLAZ/Oc7KiYDXf7XeQFd7t5bE34Jhl8+viycTtyfPu1y9dCXzXFrDKWL6EhXfA3pWedc1nxen0IEG5L5k4shlKe4Sc/he9vAznUKjdlkjJ3GwuWNqNQuyJlMxMpCRvN6Qu8gWn8jdT0QBRzol+AS5YRcxQ4OMDQQu4LzgUA9SR9oi9x2o9f/eRG2JG8X+D7H0iIiIiInI1ULAqouzh+XxPMfUiyoDmI6/4iqvnzelY/aq0NL7Azd8daq0OUltyyJzkBNdm1ljqKVU98zIf1EPiJHtQyM0HK0dTtN0zrogyHDgnBM7E6LQ5D3B7bzcfrLTWs3qan29xQe/xTLLf1Pt9hqc54gL6DfHt//YZrPF7yt16ira7ACej7OsKg6pnRnsDPMGCd9bjHYq45Zkk4uK3ls9gfE8Obp/WzuCR59iuswQQg3H2JwY3rnct+xpwHLtCA3tX+mpaFb/ropFeXO+d/ORkxaQEcNmfwldMblc9lW/OZMb1bmDvutafJvjotFSi6w/y0jO+iNwrudtwkUCmZfbW8H69oN5FsXktARQ/s4xce72yjHOMcoDrUHdbR3DdnjjsDVRV5Fs60vMZOBRqt1meGLgrm/KDbqJSp5szptbjdrmh1ygc1umh2WnE4qaiqIVw2as9cAH9B7WWCgjXHDrC13Dw1UB7j4iIiIiIXA0UrLoKfNW/P1DDNZ/ae9ph0t04e0PdaftjAtdz8KgbevfH776y/ggHLTfXUEptPcT0S7Y2hoVRlLyGKr/tAesOUAbEDPYPkJWVdCCA4qq5TJ6Yl0PqSAe4DtgK0a+n6rQtKBeC1BRnkO8yCFcNdTg6OHurE2xBnACTxnJzb3CVtBY2Cq9HUxLa3i8ySHVC49F9toBWOZ/VQ3S/BG/L8dMN0DuVhS2kQ3olf4GDntTYL9EgejxxmJGpjsBAFdBt7CiicFFna79QXQP0p4cZnLqw7whNOOgz1nd9RY90QsMR3Lt87/N3LTVucPT7wt7h79NPuAb4qn9ngtthmlEqIiIiIiIXnYJVEkQVn7xtbzPUnWpplk9/4i5mkMKulaLkHQmQ+ddoOsnip8cTYx8UkZKJ7W2mYfrVjzJTDLvK9hmsydhMmZlm2amaVeHk7Es0DXzWVjrhxTZpAHFA9B25/rWogtS2Kn5mGRlbyo2AVRs1q0LjJD7VAbg5F+T5Dd2udwBOnJZ6VSkby0iZbDuBdmVT+bE1FdBIAazd5UsnvDRW8cXSMs4tTePvliby90Ut/WaJiIiIiEikUrBKwiTIzKYIETgbrHWpeSe5z+nmA7PellF/afdlMrPKmMGGy1evym+x1gMLu6f5uWc7W4y0ya6q8xUy1xlbWmCE2F5NFdBoqVflt9hTFNe9bKlrZdbq6nDAyoVr5nNUNDiIzz1MrO0pDxc+c5tjzHpVfsut1FpmTTUedflSAbPTiA0yI+viW8C1SxPpsfQA/7e0jP/N7MzsLBERERERuRQUrLoKXFNjpO98FUqx4vWPk5X1OD+1t29/B1c9JKbYax61lHZmY6YR2lPwKk8HSSFsp4MlLug9ilT7zK45aSTa6yi1aSWjnICryFtv6/LSsXS/lgT9fuY8EPxpgFbrJpkBq+Az7mb9aCtbt25l47/fae8KLzMo5EzpaGCnLU4yRvbyazHS9voy3No4Z7JtxlRgul+oXsk1A1b9BvinBZZei5tm+oc0kXA9tXM3U4uD+Fz/J/fZ0/1alb+ZigYjFTB6pLPFwuo+X9DfAe7T19o7/A0awlfANTXtuXbtFvB3pfDljRP1VEERERERkcuMglVXgwMHuBYH/ze67RkGP1hTSGFhIS8FDDWLjDun+z35L275Y0YB7i2t1YHKIXPOeGLqd7PdVhS66lQN4OQb3ifedcC6N43i4XOsRd5X8r1pzg4EncyZSc4034ygOdsvozRAOLhlN3X2Jxx2UNW7R6izfj+TNjFvWn/qbE+2i1t+KOCJkC3WEmMWtyQZ/xV1w110bbiqmDf3NIBzMr+2FC2HDPLaPTPJDDCNHGsGiZysKAiStveui0ZrkfRJ2fx6Wl8a/Y6Zi4Xby4Psl52TFQX+Twf01LvidLV/vaviHhxxg3P0eWtrKxZQkbebJpw41+b7nupnBqDsQazgjELrUamLcA5tpbC6xyPncAI1n37N3uPnq9Gj+BI317SU2ysiIiIiIle0axISEtr9R+ekpCQqKys5d+6cveuSitT98khPX8fcUT3tzWA+9W/2rj2WlgdZkZtJ/4D2jvm/75Vx4frddP9JdqvFhn+wppApw6D0V1k8HmxSw5ztLJ5mvbl28dsM61P4PGl0lgbMtLQWngwXt/wQOXc4fA31u1lvpqsF9FnU7VlheVJeDpkFC/1m/Pj3m4GWp8dTtyWJn1uCZql5J7mvn2+bsJLvFU8n0TOgfjfr18F3/d5rG+Mn8JiEKnBfLMz9Dxo0sxwzQ/D9K+vI/vt950YfeSe5D//vNOB7D9gnn1k/2sq3k6Dpg58w8z/e9+vLWL6EhXf4z1byaNyTx3fMp+c9mrea7/Y7yIoplqfuTcrm10+nUrVlvv/T8uY8RvE06yymcn6Z4XuKYKjbhAzyiifj+ZiNe/L4zqnJFE/Db33+2zO2Rd5qvovtqYTm/voHhRrYu3IZC71BPv9tErBPPjlLT7Po693YPLk3wcJG3Z44zMjUGlwzLU/6y95h1qNy+bVHLy/DOdT3XgA+3kzJM7Y1p+czPHc8UQ27OTq39XpVq9aWM71fLM89EEWwnxdDDl/+yyL+97PN9Ph5sE8RulB/90REREREJLIoWHW1GJTP/z4yHvY+1+UFh1sNuIhIFzrPjm1VOEvjSJzb3d7ZNcxgFQef4/iLrfy2ZDRxeH4tNQUJ3PuqvdMibQfnvtWfv3/1Vr7WmSeYKlglIiIiInLZUhrg1eLTbL5WCl+Om8eXodSuEpHLUHc2/6knJFex4xF7X9foNnYUUbiobC1QxZfk59bicMeyubVAFav44ltOKC3qdKAK4Jpat71JREREREQuAwpWXUX+7ufP8fd1Dv73kR38n71TRK4I65f2Y3MpOKecJr+9ZbnaK3sHI1Md1G6zpBUGsWptBeMdMWxuM/1vOl/U7aZ7J9P/PK6pqYGY8XyZZu8REREREZFIpjTAq84qvlg6Hf4nkWsP2PvCQ2mAtFETyqKVuk4iHfcl+W9WMOpoPLcubb2YeUcYta+MWnK12xKpyLePsMho4vD8Zo6s7ke2X0V4m7QdnPsWdFt6b3j/ipK2g3PfMip+XduFv3siIiIiIhI+ClaJiIiIiIiIiEjECOsfsEVERERERERERDpDwaqLJCkpiR49etibRURERERERETEQsEqERERERERERGJGApWiYiIiIiIiIhIxFCwSkREREREREREIoaCVSIdFL28jJSNviU+2z7iSpVDZsFJFuettHdcfBlNHN5WTpl3OU1+hnXAKuI3ljH8iRxrY9drc79ERERERESkJQpWyWVgNomLi7h58kR7xyXV+EwiJTMTKcnbTZO9U1oUt/wQi4u3k2rv6ARXQQKJkxNInNyP7GJ77yVQHMWtk819Koix94qIiIiIiEgrFKwSEREREREREZGIoWCViIiIiIiIiIhEjGsSEhK+sje2JSkpicrKSs6dO2fvuqQidb+I8H3zmciAeU+R6M1aaqJswzSqK61jZpO4eCoDvK8DxzhmFDGCrex9eyg3zx5DtNleXZhJ2Z9947xjh/leN+5/ng+37QSg++QtpIyJ8nXaWMe2LYfYtYuIZzdH52ZzwdqVns/w3PFw8DmOv7jeaMveQcpkp2WQC9fMe2m0tHiZ7/98WyIV+f5d3Z44zMjUGtt7VxG/cTrXWbdnaY/1vm5lmxdZat5J7rMeDgDXZp7Nfdr3es52Fk/zP2a/zZjEQQBW8r3i6SRaev1ZxwKTNjHv6fH4EujcfLByNEXbvQ2GjCYOz6+lpiCBe1+19UHwY21+X1FArd93Zp4jvTyv3VTk3UrtLmtfkO8k2Plj9Ug9ZVMusHt1CymK3/8RW7+VRNMHP2Hmf7xv7xUREREREbnqaGaVGAYu4+bFT5HIfkqezWTvs5nsfXYt3LOM7p4xt73MuMVTidr/vNmfScl+SJxdROJt/qtj2FTGze7LJ95xTQzI2sKAgb4hRqCqlGPe7WXyyfVzvWPOb5tmtm+l2gxOecbtfTazHYEqgPW4XW7oNQpHun9Pt7GjiMJFpTWYMfKAUY9qZiIlM5+josGJc+MOb+At7NLzGW4GVTzbdX3cxdsMiVFM/b5+u1mfkcSzGUk8m7GCD+ptwyZtYl7KAbPfM8bJfd7aVE/zc7Nv/R63GZzyjE3iWWugipV8bw780tL/W5eD258+ROYkyzY7whOoatjN0ZnWQNUq4jcuIv7sZu/xP3oQ4nMPE5sOsJ7aXS7ASYytkL5x/rg5uy9IoCoEs0YlARB1w13cae8UERERERG5CilYJQA47hlDdN1+StYs4by3dSfVmzyvJzIgPRlObPULEp3ftpayOhiQbglqgTnj6jHcnnGHjtJIFNd5g1UTua4vcKLEOwbAvck+kyt8Luw7QhMO+oy1PhkuB4fTAR8f8M2W2ZXN8WcWWMa0HKgIl+hMI4BSbpmZ0/jMZmpxMrBdT7K7m6VvFFJY2MLyxlLutr+lNXMe4Pbebj5YN4Mqe5/V9hmssc6yYj1F241jNmqOpTkkT/PzKf7bO7hlN3U4cE5oz7GwW0W8J1Blm13X7YlMYnHhsnzvF15cQ0WDg/jMVUZD/gFqgdiR5muwnD9F5gys9nv9yEkAmv72HppXJSIiIiIiomCVADCbvsOg8fhOS6DKZuBEYmOg8bNSW8dO6o43QUxf/2BV3VHqWg067eTzM+YMrBmz7Z1dY1c2lR9DlHMi3Txt6RPp0wtqj1qDU0GU13ThE/9WETMUmlw7/dMTcXGuAaKut+ffteYdlj6URVZWC8tDS3nH/pZWpKY4of4IB+3pd6Fw1VBnb+uo7Z90cl0TjRTLIIGqoAFLANZz7izQZ4h5viyg7mNgaJpvtluo509rfvZvTJ06VSmAIiIiIiIiJgWrBAYOJQpoqmk7ra7lMXGWWVOhcW8y0gMZNpVxi4sYt7iImydPtA8Lq8ajLr9UwG5jRxHVsJsaW62p6OVlpGy0LGaNoy6RPoTrgKjURf7b3GitnxT5UvNOsrjYsvjVnGqfuOWH/NfVar2rtkWljjdqgZ39xBaoAnDSoxcwdLrt+JfhHOo/srFoN02WGXYtnT8iIiIiIiLScQpWCVR+TBMQ1b8zgaIqPm91JlVwvrpUz1NWB9FjnuragFX+AWq9qYDGjBr7jKbo5WU4h7qpyPPUrEqkJG93182s2vUJnwNNlnpVfotfSmJbwpwGGCKjALubD1Za6lCt3N2h2VBxyw+Rc4eDsi3WmlabKbMPbIemg89Rss1lBKSWW9P48M5g42NfvSq/xToTa9dOzjZ4UgGDnz8iIiIiIiLSOQpWCVDK53UQPXyire6UReVOautgwAh7yt5EYoZHBdSear+dVK8xA1bXJ9v6zP0LaO+IBdQcdBupgOkT6dPLXhjbSMnrTA2iNmWnWZ74RwfT/VoS3jTAytNu6N0fv0lzcx7g9t7WhpWMcgKuosCn9QVRdaoG6E9c0GLpOaSOdED9bravs/d1Uv69HD3ohqHTGe5XB8ye7tcas37Z0DSig54/HTBhERu3bmXra4tUYF1ERERERETBKjHspHpXKcSMIcWvftREBszwFE43xwyb6vfkv+6T55IY00TZ2xt8jSGZTeI8W1H2VupiGfWtJvs9TbCjLuw7QlOvUfTPHEVUQFDKnGVjrUuUvaPDaYAXqmv8C7Nn7yBlsj0o5QmA2IMol17Vu0eow8k3lpv7NWkT86b1p87vaYCl1NYDzjTzyX/AnO0tpwG6aqjDwe3TVtp7gPVUnQZ6jyLVE8yatIl5nUwD9Ljw4q24PjZSLuMtxfIbi3bT1Gs8IwNmXQWRf4BanDhzxwc5f9rvzvE3GueW4za+8317r4iIiIiIyNXnmoSEhK/sjW1JSkqisrKSc+fO2bsuqUjdLyJ837wGLuPm2WN8QRqaKNtgezrfbS8zLss6w6mUY8/6nvoH4JhRxIi+ticLmutuKsyk7M/+bb7tQbW1389EBsx7ikRL9KNx//N+TyYMXQ6xa416ULXbEqkIqDe0yijG7XnZsJuj+ZCQO57PveNtY/y4cM2811usu9sThxmZ6rD0babH2kX0cT3HccvT/0jPZ3hAUMxNRd6tnQ6IdMqc7Sye5gmwufhtxiTIO8l9bOZZ7xMAV/I9a0Cpfjfr18F3nx5P3ZYkfm6fJeW3TrzrPQhADpkFCy2zt1z8NuMAo4qnE7NnBWuesRyzjCYOz6+lpiCBe1/1NfsY39N1B63H2vf9N/m1B/9Og50jRqpo8L4Aj9RTNuUCu1f3I7vY3gkwix9t/TZJQNMHP1GhdRERERERueopWHWRRPK+iVy22gxWdQ0jWOUflGxRm8EqmPWjrXw7qYk/vzST596194qIiIiIiFxdlAYoItIuRl2zpoOb2w5UhWLCIjKSgJPFClSJiIiIiIgoWCUi0h45xK6dTmzDbsqtKZwdMosfbd3K1sdvo+Z/pjL13163DxAREREREbkqKQ3wIonkfRO5bJlpgJ6KYNCz1XS7jrPUs2rYzdG52VywD7G6aPslIiIiIiJy5VGw6iKJ5H0TEREREREREYkUSgMUEREREREREZGIoWCViIiIiIiIiIhEDAWrREREREREREQkYihYJSIiIiIiIiIiEUPBKhERERERERERiRgKVomIiIiIiIiISMS4JiEh4St7Y1uSkpKorKzk3Llz9q5LKlL3iwjfN6sZWa+TFQ/NR15h9q499m6ffk+yYcpoenobmikpmMPzp/1GtUvO0tMsGtmT5x6IYr2980owcBk3zx5DtLehibIN06iu9Bt10UQvL8M51Pe6dlsiFfnWEdKSuyZm8USqg6aDhfy/nW5796Uz4Gb+e8atRPEJv37hj/zM3t8lhvDjJ7/BsE5v826WvjGfMQ7z5YkCsub91DYGyHmJwn9KNl80sf/HD7D0bduYiy6H2LWLiO/lee2mIu9Wanf5j7piTMrm10+nEk05v8x4mVfs/R10z01b+Pf4o/zHjiVYv9LcsUVMYyuT9m2wtF6hPNew+zAvbviQ9+z9pu9PfYjvJMCJ7W/wr3+x98KqteVMJ47Eud3tXZ2Ss/Q0i77eDPRk9+p+ZBfbR4iIiIiEh2ZWSft5AlUVRWTnzTKXzgWqeKSeRV9vxrUjWKBqNomLi7h58kR7x+XDE6g6sZW9z2aay6ULVAE0PpNIycxESvJ202TvlItjwM3895MP8eNb7B1XGzNQxX5WZ2WR9eP9NA2bwptL7vYfZgaqSn+VRVZWFgUnohjzry/xA/9Rl8B6auea19M2l73z0puUza+LV5M3x94RQQa9zL+PiMJ11D9QBZB3bD+Ng6fy1k2X8b8BF9mCgljcyVUcXvqlvavjHqln0ddh9+oEEicrUCUiIiJdS8Eq8bOp0Ag+tTarKv2G4fSkmZJ9v7B3dUxGE4en1OH+Uzz3vmrvvDJ0Hz2SaJooe/sqmBlwFXivth6A6toImlUFUP0h/++FN7i/UzOc2ques27AfZYT9q5Q3XM3Ix1Q+vZS3gF4+x2OuiGqn2cGleEHtyaDez8FZkT7p4dLgTiG3OM3TLra9ny+kzGfjHDNquq1jLfGJdN47HnmfGrvBBqWcP/eUqJHPMW6QfbOK0y1m2qAs+4WZ1UBnDjjBtycrbH3mIqjuLUgBsfXK9jxiL2zY1aNroNSh4JUIiIiclEoWCUddJpTnZlJZbFqSi0Odyxrln7N3nWFqeLzSziTSiTSxQ20zaQKxtEX/xCWXO5yR4whumE/a/66097l8+ljbDkFznEvk2vvk+Be7c3mUnBOqWeVva/dvmRIP3ubiIiISNdRzaqLJJL3DUutKo+y92ax8Jh1hE96+jrmjjpNYd4SNtk72yujicPza6kpSAiYVdV98hZSxkT5N1o07n+eD7fBgHlPkRhTyrFnH8NvnouZesf+5/lw207z9UhqN0zj83uKGDHMHFe3n5I1SzhvfS+zSVw8lQHe10HWH2wfT2xl76bA2VPGuKqg6wiNWROH3Rydm80Fa1d6PsNzx8PB5zj+ojnlxGzz7VkrNXTMsZ8Hq1nVQl/08jKcfez7sor4jdOJ9b524Zp5L43e11cXT00ZD2t9K3ufna8OjYNnZmeRdvaP3P9Hh1mPyuBXL8tbq8rUQr2b7099iO8QuK7Aujfmdj31oyy6pk7XD3ipcArJ7v2sfmgpLHmT+eOiKP1VFo9b8oLv9mv3f8871tW1Jdg1Y+r2xGFGpuJ/vWTvIGWy0zKqlXM7ewcpk/sHvd6MddfY3mtcN9fZ98W+zY83U/LMAt/rEDyat5rvWnfbxrVlPrnrAJysKMhl3OltZGwZYNajMjTuyeM7z5ipjd5aVab6g6yYko/fRJs5j1E8DX658gyZ3rpW2xhakMu43oBrGxm5lnf0WsZb946ham9m8FlVVuZYjj3P/a0FtsTH/DeWP8Vza6f+IPQl+W9WMP50+OtgiYiIiASjmVUClvS/7IJDNNs7AUYsIz/3dfJzX2fuqJ5AAlnm6/zc18nPetD+jpDk3NmMgxgOBEn/O79tmlnbaSvVZnDKV+8p0whAsZPqXaVAMn1v83+/J/Wu9pD1piaKxNlFjMBTO2or1TFjSJkx2zdk4DJuXjyVKMv2jp1IZsTil/Hdu09kwLwiMwDl2aetVA+byrh5y+gOcNvLjFtcxLjFRWZAK5kR5utxi4sYZ91mm9bjdrmh1ygc6f493caOIgoXld4b3VXEZ0P5TLOGzsxEXB87iM89TKztvWGTns9w84bbt00nzo07LAXlrx5GMOoTfv3CG9xvLjv63skzZvTzZ1vN9k2HaTKDRZ5x979gDxwBCd/grRmJ/HWTOWb7J0SlZvlqXXnT/97g1+W299olfIO3ZvRhhzn+xYNuhk3K8u6bN1DFYV60jMHcz/AHqgB+SsHeJnCMYX5hIfPHRcGJAr9AFcA7y35PKZD8T4UUFk4hmSb2r29noApg107ONkCUcyLd/DpycDgd8HGRL9CUns/wkQe853XJzOeoaOjac7vbE4fNgJdnm5upHTqdlOXtmx/zSu58MjLmk7HyII1mcCojw7cYgSoL52SKn3by4UpzzJZyou/I9dW68qb/zeeXrZbm6kvmnL4UZWzDRQKZBdncfDSPFXsawDmCRy0j7xk8kmhKKWkrUAXQsJOjDRAdPxFlfoaouAdH3OAYeY4ce5+IiIhIBFOwSkJzbIm3mPraI81AOYXe4uqzyC7sSP2qL5k4shlKe9C++QI2fy6hGhgwwhr8mUjM8Cg4sS2wiLnf7KcNVO5vgmEp3kCU454xRNftx7XNF+Ryb9pKNckM8RR5v20qiTFNlG2wzpTaQFlhKcSMYeBtwJ8f8wa7SvY3mbOzfMG2YDOwWnNh3xGacNBnrPWWw3NzfcAyU2MBFbbZV41Fu4O8N3yiM8cT1bCbcsvMkMZnNlOLk4FPtGebd7P0jUIKC1tY3liKkSj2A16y91mXNUbJ7buXvBnY513eZGmX3PE6iO8DlJf71Y362dZClldbGtrlE379guX9fynnBDAgNsjUpza5ObDJV9PqvaNlxrnR32wYMISbHHBi74femVnv7TzMCWDYDUPMlvB7549HvYX+S3+VFfxJgPyUQ57CWO79rM7q6JMAWwj+pk+kTy+oPWr5RdqVzXG/GU3rqd3lApzEZFuaw2YV/VMdNB1cY5mZtYCKbS4Ymtl1AWcAyvllxjIWbjdfrjuGC4gb3Mr0rKB6wdFt3npW0bh4yTM7i74MneQZN5GM+Cg4VUKep6lVOymuaIJefRlu7wpBaL8Hof22kPNSYJ9leak9P3td6mvsPNoTHF/Q3m9RRERE5FJSsEouoS/o7wD36WvtHe20gTMn8As4MXAisTFQfSwwIGRvO19TBcRx3UCA2fQdBo3Hd9rSAkv5vA6irzeq5ThGJAevQWUGzqL6d8FTq3ZlU/mxbTZIsJvrYHZ9wuf2trBZRcxQaHLt9E9PxMW5Boi6vj23SO+w9CHjSW9BF2+610953N5nXcxAxzvLHgjs8y4dDXS0xU3FWXMG09QwBXcCipd/wr++0MFZTu4y3mstaNa/jyV91F/TGaOwfNjlvEThv47xbjf5HjMoec9S3vTe+BuBzCme9F3HGKaYAYEfrLEGMkNz4cUiam0BXM8sxTp7OqxdeU3XPUEzO41Y3JzdZ5tWVl5DEw56tJI+2mn1Zzju11BMbsZ8XxpgyBr48F3Le05X+6cKeiXTtxc0ukvtHS162238Xg/tZe9pW2i/B6H9trD+8cA+y2KfFXgprf+0G3CBIRn2nnbIOMcoB7gOKQVQRERELg4Fq+SK4H57P42WVMDuo0cSXbefyj/bR7Zh4FCigOgxT/nS9RYXMW7xUyTG2MbWnbEFtHw8Qa1wazzq8psN0m3sKKIadlNju7nu9sRhUjaWWRZrLakwSx/CdUBU6iLbNhcR34EbyivBz7aaqXMJ3+CtJx/irScf4r8ndmQW1CXwl8MccMOwcTdzl9l018RbGYabvx7tQHCsTT/gpX9KhhMFxo3+r0qNdMA1P4DkvkTRxJlSuHvJDxnjaGL/j7PIylrNfjck/9ObLL3nbobEArWftDMdcAF1fsFfY5Zi08HNAbWoopdbz+syUvzqwYVXtwH9jdl5uRdvmyItymji8LZyynJhzeTA2pIiIiIiXUXBKrkyVO6kts6TCmikAAbOjgpB5cc0BamP1d7UvcbPQp8p0C75ByyzQcyba9uMJqOIs4Pabb6aVSUzN1NrGRNW5qytJku9Kr+lXUWhr4Q0QMN7OwvNGlSFHHBDVGrWZRKw6k0fB+C4lSfMQNsTqXBgU2fSGFtxzxDigNLDvhkrq/c2wbApvHlPHFDFJ29Dcr8ocB/lnbcxZ+AVUEoUY3J+yEgHNJ1u/zXnF/xNn0ifXoEzmqKXl+Ec6rbUj0qkJG93l82sulBdYz4QIci1NDPIQxAkZKH9HoT223L5pAF2UnEUt05OIDEP5m0rZ8cj9gEiIiIiXUPBKrmErqXGDY5+X9g7bPxT8IIzC60PS8ExcCKxMfbC6i1zjEiGuqPUVRLitsB9rBRiRhIz0NZxWwoDAoq6h9MCag66jdkgQW+uzRpWQWZbhY+R9ufTkXS/llwJaYB2bpZvMANWfXv7d1W7jXprHao91TWMWVT+xeHvt9bL6iJxA31JfO8s+y/2uyHKEUXT3gK81ascffFdmT/l8V+VgiOKKEr5/bL2zasCIH8zFQ1G8NeYpXgEt98T/Mxz3VpwPdyy0/xnPbY73e9OFr22la1bt/Kj79v7TNurqepQ7amuVsqZBoh2tP57a3WPwwhgftxg72lbaL8Hof22XE5pgDmDLgDd+CR4LmZozELtztHt/hOQiIiISIcoWCWXkFn4NfkcrT/jaiefnwGGTWaAPThk9ecSqklmxOwxRAcrrB7MbS8zYhhU71pizsLyBL2mcrOnmHowf95KWV0UidPMJ/8BMJvErOTgRd3D6MK+IzT1GkX/zFFEBdxEr+fcWfwLR5tP6utQGqA5ayp2pOcbWkV8wLrMgtNDpzO8XcXUr1RD+PFsXwod+IqWB9Z8quesG6JSb6WlOMPF9l5tPdCbeO/TAbvY20v5/QmIGjcFc86KH0/7T9/aTxPJ/MOSYJWpWmpvi1FoPco5nf5OB7W7/B9M4AnEMjTN9+S/7B0dTskzZk1ZCrNn7yBlsi2AZNami50c4tM7J9zFjWasM2nULHuvqZzP6iH6jsl+T+K79MyC6YNTyLV3BWUWZG+w19aSlpkPMnFfS3srj4mIiIhcStckJCR8ZW9sS1JSEpWVlZw7d87edUlF6n4R4fsGD7IiN5NEezOYT/1bwiZLS3r6OuaOOh3Q3iEZTRyeX0tNQVu1MCYyYJ5/3ajG/c/zoeWJfQCOGUVG8KkwkzJ7vaqBy7h59hjb4+abKNswLTC4FNLY0PYJoPvkLaSMqeLYs9anB3ZUDrFrjXpQtduCpQX5+g0uXDMPELNxOtcdfI7jL65vIejk4cI1815f3Z70fIZbbs5rtyVSM+AwI51HOGp96qBtnMFNRd6tXTcrJVINuJn/nnGr37E4sf0N/vUvlgavIfz4yW/gqRuO31gHz8zOIo3DvLjhQ+/T+ezumpjFE6nBZ2c1HSz0FmL//tSH+E4f27rMfa227N/3pz7Ed4LN7Cn/I/dv/cTeGhY/WGMpng407V3NA3+8mzf/dQxRlFKQ9Tg/vWep+drDaMd8b9Pe1TzQ3hlW3vPWdt572a6Vht0czYeE3PF87rn+gp77pobdfteJJ03X4MI1czM91i6ij8tzbQYbZ7Kty3Ani177F25zwMn/mcq/WR9B6SeDvOLJfk+Ec22ZT+46ACcrCnIZx0FWTMlvoRg6ZCxfwsI7gheia9yTZxRin/MYxdP6snflMhZuN7fp2kZGbrH5fsw+8429lvHWvWOo2pvJnE9tK7Vrz1gxhPxvbFu+JP/NCsafjiNxroqsi4iISNdTsOoiieR9u9RWrS1nenIMmyf3pj3VjYIxglWlwYNCZgCqKVggS0TAG6hyB9aouuUbvDVpiF/wSyQccscWMW1wKVveeow8e6dF7tgipjn28x87lnBRMnivAKvWljO9XyzPPRBF5zITFawSERGRi0tpgHLJLSiIxU0d09d2thbGbPoOg8b9WwMDVSISAgfxfQB3Ge/Za1TVnO2youJydcs7ZjzNddrY2fYun0EvM20wuI4qUBWyR+qZngyuHZ0NVAF8jU9O29tEREREuo6CVXLpFUdxa0EMJFdxeOmX9t4QTWTAvKkMqNuPK0ganoiEwk3FWcCRyF1+NascPPOtW4nCzV+PKhQsYdawhPv3lsLgqbx1U5Bagb2W8da4ZBqPPa/0v1BlNHF4Sh3uP8V3Mv3Px3W6JyS7yc+w94iIiIiEn4JVEhle7c1zf+qJY+Q52leiezaJi4sYt/gpEtlPyRpPoXQR6YifbX2DX5c7SJvxEG896VnMulkX4amAcpX69DH+41gT0fETucfWlTtiDNGntnL/X/WHiFCtmlKLozSOW5d+zd7VYeuX9uO5P8H4+eWUbTutoJWIiIh0KdWsukgied9ERERERERERCKFZlaJiIiIiIiIiEjEULBKREREREREREQihoJVV7mkpCR69OhhbxYRERERERERuSQUrBIRERERERERkYihYJWIiIiIiIiIiEQMBatERERERERERCRiXJOQkPCVvbEtSUlJVFZWcu7cOXvXJRWp+0UE71uk7pcEs4r4jdO57uBzHH9xvb3zshX30FjS+pbz7tpqGu2dHgMHMOHhBBp/t48DJfbOiy/uobGkJUHjB4d49w/n7d0XXfQ3RzLh9iYOrCinyt7ZVczvJNrzur6N71AgJYGsfxzge33yrxS+4baO6Dqebbf5PXXHOXc0N/b2tUTKeS5WIXxPIX/nrejMdZ6SQNY/RvHRa0dxVdo7Q+DddvXF/W2zX6cXe/ttMr/7Mxfx90NEROQS0MwquerMyHqd/OwnSbd3yCXgYHASVO1q/eYn+pbria4v56MICFSFKu6hsWTNHeC7yeuE6G+OJGthAnH2jkupspp3V+yjcMU+Dpy0d0pQJeUUrthH4YpDfFRv74wEngBINQfM77ZwxT4FqloRzus8dBfxe7rarnMzUNX4wSHvcS2MqECViIjI1UPBKhG5ZKK/GU8c1ZxqNQjl4Mbbo2k8XtdqQCs4B2kLx5IVbHnIYR8csqo3uvDmUKQreAJlrc2KGRjD4N7Q+EGVbs4jWajfUyjfeSTzBsouXrAobsQAoJqP9NsuIiJyySlYJSKXSHfihkfDybOt34ik9CGORk79pRM3Dyf/avkrubkofUIkqMaaTlxrctHoe+oi9ecuz+CeiIjIFUY1qy6SSN23SN0vrxHLyL+rHyUFczg19nWy4j0d5RTmLWFTwNgE3+uKIrILf2H8d78n2TBlND19vf4aDrE2/wV2mWmCWb19r8H3/pr3ZrHwGMAdPJX9KCn1RWTvG+S37uYjrzB71x4A0tPXMTfhOGvzPyUrN5PEIGNCF6RmVXo+w3PHEwXUbkukIt8zNofYtYuI7+V57aYi71Zqd1n7XLhm3uv/P+Xm+gioi3Uni177F25znOQ3U/+N1y09HRZSPZPO1uZwkLbwJuJarQ1kjqHRti+B7Z5aVR5V9hpa9voudu2p9+Ldfkt8dVR8NavOMtjynoAaNhBkvZ2vx9JW3TFj/yxHpYXvw3587fsf99BY0vgrhe9c53ecA76HkNnr/tjPAVObNWyMYxr9wSHerYnzGxt831o6r63pXbbvxDy3CPqdtsK+7y0cewhvbTj7dxmw3YEDmPDw9Zx67SiNd1vGtusasWnts3q3V0Hvh33XtXfblu22eZ6Fep1bUsrs35lxfIJ8z6Fo63tq7TjYtWNsW9d58OPSwjXVGvt6WjknQv1tCVWbnzGEbQavIWj5jTDPhTbPM4uA64nA7YqIiFxpvhYTE7PU3tiWPn360NjYyBdffGHvuqQidb+I4H2L1P3y6jeRqQn9iBtxPze4i8h+YzlbD1STfOO93HXLMKr+sodPzKDQqjFRlBTM5sn3fsXWAz1IuyeTH8T1YOvxI9C8h98c+BVbD/yKHnH3c8M1h1j7swX8xGzbaq4H4NYb7ueGHtXst7QRdQffHhFHU/mvKK4FGEL6LbcT1284U0c4+NCz3ebbeHDMvaQ1G+OGDr2PsUOGMPb2wZS1MCZ0k3DcP4q/r3qfM3/6sy9Q1bCbozl3cvYvnnGriN84h7jqzZTMu4+qt37CmcQ5JN83hy9q1tH8yZ9pjrmPOKeT/7vuJ7i974Nu0/4/Bg88T81vcmj2fnhgwvfIuWsg3ehDt55v8odgN0jtFDfxRgb9XSUfvt3EBXunx8BYbvl6DGf2nKCy3Xd0AN0ZdGcs0XW1HD/S0g3+eSpdXzAotT+DYhq84+IeGs0NffxvtBqPnOL4+6c47vqCQakxXDh+yn+/Gpsof98Y0xA/mEF/V867L/yND8224/tb+awBzlNpvq/yut4kDjrLgRVHOehZ1/v13pupbsn9SBzUl0F3xtL4u328+8tTHG+4llETBvCV6zRnPAMHDmDC4066fXCI7T/72NzPG0n79rU0WNbXXtG3DGbQdfWUB3y+7jjnppE2zLrvDTi+fRO33foFld7xDtIWjuYG6/FyfUFi1o2Mivd9J9G3DGZQUiw3pF7LyddK2FtkHJtRE/r5f86QOEhbOIrEyr9SuO6EeZz7kZZlW9fAAUwY08B2c8zx92v56tZkbplkPWbGedZ3UBw3DG/yftaW9+1a+o6NI/Zz+3n5JWf+91puGD6Av2vwP7eixydww6ALnPx9Vfs+Z1W9Zb+DbdM49rfdOZgbUmPoBkQPH8wNd3qW9p8b0d8cSVJ5iXEeeq6XiU6/75Je0SSm9mdQ6mAcpZ7zsQHHJNu4EEV/cySTJnTjI/O88J5nnnX1iiYxtSeOYQ5Ov3GMz4YNZfCI3iR+foLCPV9ywy29OW9+T22eZ5UhXudV5/jq1jgGXX/ecq5jpDZ/O5bokxUcDPlztuN7avM7N7R5zOzjW7zOzaDXA4M54/n9ed/4DbpheDc+K7Gf/22w/462sE0jKIRl/09ROSiZW3qdbte/F9HfHMmk6UnccOdgBvUBesSQ6D2ugxl0XS3lpV+G/Htm/B7/L5V+143xG9Ht02pzXdbz7Dx/afE3w9jmLddZz7HWv1cREZErhdIA5bLQfOQV3ywp9rCrvBl6xZgzlR4ka1RPmo9s5PnTnnf8goXvlUP8BJ7q52nrCuUU5s3xbffYUcqA/n3v8BtV9l7bY9pnFfGeQNXcbL//ie/2RCaxuHA9s8DbduHFNVQ0OIjPXGU05B+gFogdab4GIAeH0wEfF5kzsCzefY+P3AAn+cvPbH0dEmGF1Surefd31ZB0E2kpxo1XWhJU/a6dMwIuMb+/yJecpYpoBt/S3dsfd3cC0fXlHLDM8qh6469UMYAbv+kbFzYpcdzYu5GPXrPOMHBz4HfV0DuBG1OMFk/tsgPW2QyV1Rz4oBGS4nEO9L45YKZG4x8qAj5nKLzbtMxMaPxDKR/VR3Pj3ZZ6ZpXVvOs3e+E8rl3VwAAGm/vvVV/Ou5bZFI1/+YxGoultnZTVlhIjLTZuhLWmmidltqILzke3r0j3a+U0mudRZ4pLN/7hqP/MkMpqPjoJJPUJnCl48q+WWUduTp0E+l7X8qyloMy6dh+UWo6PeZ75nT/RRJ/xHcPo3k2W79/+PYXjPDtP1fFG6H09cdZz2Ext/uid9syKCff3FOoxC0V3nOkD4ORfA2YEdaXo66Oh/jOqLNdEwLkXgsY/HPUexwMnPdex79h6z88Qf8/ax399Ab8Znm0WtP5vpYiIyJVIwSq5LNSc8U+Z27VrDtmeNMARI0mkmb/9zZZWV1tHMz2JifVvDquGOsr8Gn7BwrxZthS/cj48ZnnZaROJ3zid2CCBKl/A6YDtf2zXc+4s0GcI3QBYQN3HwNA0301h+kT69ILao74gl8/7PPfwVKaGKQWw6wur2yTdFFBgfYI9OFNSzoGTEPePY420mIt849V5bR/PwUkEOZ7nqa+H6OvbcxMeGqNYcRON9gCLGZCJ7t/dF4gJUicm4MYNAm5OO7b/LdVLO0/jmRCCJdWB+wrAmc/9280C0e07j8yAjTWwYxbUrjrWnuBGZGn8LOgRC89naqmuXfW5gPPHb3tBzjmvsJxnvnPYL2g8YkCQ9V9k7ThmbbpE52fjZ43QO4EJF+lpjKH9nrVTG+dBRJwrIiIil4iCVXLZS+/bD+hJypTXyc+1LK3VqLqMRaWOJxbg7CcBaRHgpEcvYOh0UjaW+S3Oof4jG4t204STmGzjdbexo4hq2E2Nt+5VVzECBW0+ySqlD3HheipTkALr9hoyeGcZYdQkutJqgQw0AjDRt4+2Be6sNZu6QCsBAb8bf3ugx6JDN4Gt6k7v3sGDmAF1Ycx6MX7jAuryhFfVO+U0WmZuXbQZhmET+BROvxo/YRbdPwqI5saHL+73FBJzVln08BhzX0KbVdrVIvqYhajxD0cpNGc1TfDsfyee8hqSUH/PREREpNMUrJLL3q4zp4FmSgpmkZ0XuBgF0a8cTQefo2SbywhILbem8QG4ONcAfLyZkpmJgYt1JtaunZxt8KQCGjOymlw7gwTAwsxMawj4i74fT1qJfeZLV+qOc+5NxNVXU1U/gLSL9Nf6i6bSCAY1fnAoIHBXuOLSPB2x8bPWzgGf8D/1zJglEyyIWbhiH4WWdESjsHEjH71m6TfTsLpMZR2n6j2pgGZwN2BGXKQyC/jbU6k+6Lq9b6xpMtOpgnyX7Z7ZFn5Vx6p9qYBmEL71WZBdL9KPWchKyn37fNIMQHd1wKoFof6eiYiISGgUrJLLXzvT/crqrPWuQpN+w/DImqWVfy9HD7ph6HSGP5Fj6bCn+7VmPbW7XEYqYPpE+vRyc3af9QmA/mb9aCtbt27lR9+397RPSGkNlyCtJPqbyWZtkHIO7DL+Wp9mTxVsByNFpUdYAl7GjWUU0e2qI2PXsTSmzvC7SbfyS0Ey6/oEqWcUfcv1RLd1Y9+hcyXEdD9zFkzX1IpqjVkXK6kPcQNjGNxmcDeCpBjf40WdOdSR1LX2auE8C+k6L6nio3ojFTBuxMUOwrcgnMfMDIT7z4A0/+BwEVW9YQas2ryuOya037MWmNdFewU9v1LiunY2rIiISIRQsEouf6dfYGcFJN61LqRi6sZMrAQmpgcvcG4Es4aTbq4rPX0dc0dFVKgKgAsv3orrY4hKXUS8mcqHJ72v13hGBsy6CiL/ALU4ceaOJypYYXWvWdxipkclTVjEnfbuUA0cwI0hpMB4CoFftLSnlAQmWIsNm/Wrom9PbmehYR8jwBSmwuXmjaVf4e928wRAbgqs19VVzJv0G6dYZ6k5SPvHAX4BIKN49QDSrDMiBg4g7fa20kW745zSsXOl6p1yGnsnMKHVWRjmDCxrIC0l4eKkSpWcNY7JwwlEX/RgWSeY9bysBeLjHuraNEBPql3cP47s8PXaupbPs9CucyMgG337aGOWXrsKq3eRsB4zo85a9O1x3usk7qHR3Ehjq7/zndMd59wEWwDIDC63klLcKaH+npnnhPcBDCkJRh3EDjBqnlnOr4EDmPCPUTTW20eKiIhcea5JSEj4yt7YlqSkJCorKzl37py965KK1P0igvctUvfLa8Qy8u9KoOy9ttP5ggaVGg6xNv8F7DGYgLG2cTOyXicr3tr3KVm5meDdjzt4KvtRUgi+fg9jO6cp9BSDB+BBVuRm0v/IK7ZC7G1ZRfzG6Vx38DmOv+iZAZVD7NpFxPcy0gN97cZY+2Sz2m2JVNhqUkUvN+pZBeuzuvPfN/Ivt0cBJ/lNBwutG48ab+JAq0+uMtKIoj84FLSuVPuYKUn2ZswUsDfcxv/8P5xANNW2/fK81/NUsFbWFfBeg/F5LTfp9eW8a33iXXsE3PD4thn8uLZwHL2f18r/yWehCPhsFo1+2+yOc65/XSz/fo/A4+v3dENvSp5lAJbvsUMCt0nAdm1j6st5twDSHk6g0TvOHNPGvgTdf5P9s2IZH6wvVO3apnlu+D5XB9nO1cYPDnGAZP9ztIVtxT00lrS+HbtOgp6TnmvOb3vmOYnZZ+6v53gEPWatfLcB2w12nXuuu2B97dXCsfMIuv8m+3cesO/473/QflNr13njB4d49y8xTHj4ek512W9L4PUb/LcldG2ff6H9nvl/hmoOrKgieu5oBh/3jQ26rWDfrd/1ZPzu89BY0mj5nBQREbkSKFh1kUTqvkXqfsnFYwSrXLhm3tvC/5ybJixi4+O3EXXyN0z9t46Eqoz/ybf+z3pQKQlk/SNBgz9ydQt6c3cFM4IOwQOh0nW65DwzgxAECWyIiIiISCClAYpc1VYRMxSaDm5u86Zs1rduI4om/vw/HQlURXJhdZFIZKQ0tZ4GKZcLT/21sDzdVEREROQqoGCVyFUrh9i104lt2E25N30w0J3/vpGtW7fy7ev/zE+mzuS5d+0jQlRSTuGKttJBzuNae2meTCcSOTxPpizngIIblz+zJl7V7zRDTkRERCRUClaJXHVWEb+xjJSNi4hnN0fnZnPBPsTi/f+YydSpU5n68HO8b+8UkTBykLZwLFkLLfWU7EPkshH9zZFkLRzrVw9LREREREKjmlUXSaTuW6Tul4iIiIiIiIhcnTSzSkREREREREREIoaCVSIiIiIiIiIiEjEUrLrKnTx5UimAIiIiIiIiIhIxFKwSEREREREREZGIoWCViIiIiIiIiIhEDAWrREREREREREQkYlyTkJDwlb2xLUlJSVRWVkZcraNI3S8ifN8AcpaeZtHXm4Ge7F7dj+xi+4hwu4Onsh8lpZfndTMlBXN4/rT/qEtqxDLy70qAhkOszX+BXfZ+ixlZr5MVb2moKCK78BeWhvY6z45tVVCQwL2v2vuuDI4ZRYwYZmk4sZW9mzZYGi6i9HyG544nyvO6YTdH52ZzwX+UBDWEHz/5DYbxCb9+4Y/8zN590Rn7M+BgIf9vp9ve2eW+P/UhvpMAJ7a/wb/+xd4buh+sKWSK5/pw72f1Q0t5xzYG7mbpG/MZ4zBfnigga95PbWMugewdpEx2+l5/vJmSZxZYR0hHPVJP2RTYPLk3YT2ij9RTNqUOANcV/O+OiIiIXD40s0oAWL+0H4mTE3juTzB+/mnyM+wjwm0Pz+fPIjtvFtnvlds7LytGoKqZkgLz8+TN6mSg6kvy36zC6Y5lc5AbBseMIsbNW0Z3e8dlxAhUNVG2IZO9z5rLpQpUAezK5vjMREpmJuL62N4pcnEZgapSCrKyyMoqoNQxhvlrfmAbZQaq2M/qrCyyfryfpmFTeHPJ3bZxl0D+vZTMTKRk5nNUNNg7pVNejWa3u47pbzaRY+/rqIwmDk+pw1WQQOJkBapEREQkMihYJX7WL3Xgopn+yfaeq9CxJUbgqdVZVQ9yczxQ8W7YZoWtWlvBeEcMmx+IYr2984owm77DgBPbqK6098nlp56zbsB9lhP2rqvQiTNuwM3ZGntPqH7A6GHQtLcAY47UTzl0Aogdgl8Y6p67GemA0rfNGVdvv8NRN0T104/3Zevuh1j51ir+y7v8kMn2MXyN7AficDlqWbT2vL2zQ3LubMbRwh9HRERERC4VBaskqP6DvrQ3SSua68I0OyyjicxkcBWEOcUjAjV+VmpvEhFTqEGnuIERMJNKOu/hH/Jf/5wC+1/lh/cv4If3v8p+dwLfDhqw6s69BTGQXMWOR+x97efs12xvEhEREbnkFKySLvIgK3JfJ9+7LGOGfUjI7Otax1P97GPMGlPWcVkP2keEJlzr6YBVU2qD/4V74DJuXlzEuMVmnaeYMaSYr8cttqQF3vYy4xYXcfPkibYVmOmDi1/GKG8zm8TFRSTeBt0nb/Gtx9vvz39M8PVb97G1dYVF9g5SNpYRn23vgOjlZaRs3EG0tyWH2LVlpGz0LcOf6EgCzSrig7y32xOHbduztnd2m5cDN8s3vMH9Gz7kPXsXQ/jxkw/x41vgrolZvPXkQ+byDb5vHTbgZv7bHGf1/akP8dbsm7kL4JZvGO8zxxrrcPDMbHOdU4f4v5k2tglgff+TD/HWk1k8M8B/hLEO27aetOyXzXs7C7n/hUKWV9t7QlXKGTcwbDQ/AMh5iSnDoOnYO/41q97+hCogasTd3A3cveSHjHFA6eH216wKvGY8jHM+ZfkqX1N6PsMt53XKxsPEplvfEyJzPfZrOHp5GSlr8+nm12q/hju4zYiVzMN3J8DJ3/P0Ck8Qv5TXZv2eEyRw98IggctXo9ntBue9YUwHFBEREYkgClZJ+PV7kg25mfQ/8oq3hlNhRQJZHQpYPciK3EwSK4p89aDy3iVm0pNY71XS09eRf1c/S92oIsriMzsWaPKk/+W9QknQeit38FS2J5iVSSLQc9SjbQfT2nSetGRwH+0RmP5XuYQPzdpOx04Adfsp8dR6ejaTvWuWcB7gz1spq4Po4RNtNa08qXclWEtOD8gqImX4UXNdz1NWl8wIWz0sx4wiUsZUccyzrQ37YcxTfgGr7pO3MG72GJoKfft07EQyIxZvYcBAgIkMmOcJYk1lABA95ilLYMszLkT5B6gFYkdabqIBWEXMUGg6uJlGsyV6+TzIN+pRlcxMpGSbi6jURV0aPIpeXsbI1Bpcnm3m7YYu3mYkGzbpIZ7oe5j7X3iD+18o5IB7CN9pIdjTut7c+60+7Hjhj5xgCPfOvpObSgt58aAbEhL8g1HJd/JEchkvtrjNIfz4ySzSzv7R3K83ePEgpM0IDFjBEL7zZBY3lRaaY//ICcetPBEkQNZ577D07VIgmSmFhRT+UzK49/Nfy+zl1X9Kwd4mcIxhfmEh88dFwYkCHg/48Whb41EX4CTGHvzNTiMWNxVFnnmeq4jPhnLPeT0zEdfHDuJzuzJ4tIr4jYuIP7vZu82jB+nibV5kd4/lRgec+Mvbfs03LhzPMMBx41hu9OsB+Bo7j/YERzMTu7zGpIiIiMjFp2CV2FxLTScfoDVj7Gh6NhzitV17vG2bCosoI4GJ6Xf4jW1Tv0H0B8pOWAuW/4KFfnWkHiRrVE+aj2y01I36BQvfK4f4CR0MHLXGUhw+r4gyoNkSmMvO6+BTDR85h5OeHHn/a/aedthJ3fEmiBlJjDX4c1sKA2ii7G1bEfO6/ZR4Al3spHpXqf97By5jyDCoLnzMF+SqXIJrfxPRY6Z6Z2kNHBNF4/7nKfuzZxC4N22lmigS75ltrHuNJ5C1lWqgcf/zvmDbs9PaWb9qAXUfA0PT/GeDmDfXZ/f57tgbn7mVWmvRsfzNVDRAlHOibfZGmKTnM3Ao1G671xswY1c25QfdRKVODzJ7pRU5L1FYWNji8lIOZqHtwD7v8sZSs9bRD3jJ3mddAgp4h5H7MC9u/cTzgvdK3eDog/VhkKFxQOlh7xMHoyjjVe8T/3oTbwkyRVHGi97ZXm6W7/0EHLfyHXP21l0TbzWeYOjdL3hv5/sccDtI+0ZgEOrE9jcsTxf8hL+UA30cHQi4hWD9ITzza5r2riYr6JMA4Z0/HqXJ/O/SX2V1/EmALQR/o0c6oeEIbu/1s4AK21MyG4t204SDPmO7JhDb7YlMYnHhsjxN8MKLa6hocBCfaQ9Wt+7uJW8Gnvfe5U2W3kPo10lI12aIkvrgoIHPTvqaJr+win++sZTf7G8ARx+SrONN69/viVs1JkVEROQKpWCV2HyNT06D4+uNtO82wMMoON5cvsdWlLycugboGZPg19qm059SAyTe9TorRtg7TSNGkkgzf/ubLzgGQG0dzfQkJta/OVLlDLoAdOOTYntP+5w/dJRGoogd7Zv55BiRDHVHqbMFhBqP7zQDVabKMzQSxXVmsKr76JFEU8oZSxAK4HxNFRBnjLsthQFAU81O/0Fs4MwJoO/QLnlyoXGT7D8bJPDmOpj1nDtrbwufbmNHEYWLunz/9gvVNUB/erRnNsj6x8nKympxMWbRvMPShwL7vIs30PFTHrf3WZeOBjpC0FT6SZAUwY5w89ejlmj6WXeL6w3YZs1ZmoABsQ7AwV3JDigv9wa+DG4qzgYLQgUWTP/Z1pZSHzvpnqW8WTgFT/whatwUIx3QDKJ4n/aX8xKF/zqGKHNc8j1mUPKepbzZ3mAJC6g56LYFf81Ziq6dfsGpALs+4XN7W9jk4HA64OMDvsAv+K7hPkPaFXB+Z9kDgee9d3mApW8T+nUS0rXZEffwb2+t4u7aV/nhrDewxK8CFV9LTadrTLYyo1dERETkElKwSgIsmJtA4uprydxWTtm2+vYFrcyZUP5pca+Tn/soKb3sg0PxCxaa6XiJdwVPs0vv2w/oScoU6/ZeJ3/KaHpaV3W1qFzCJyesqYBGCmD1Ls8MqtB1vz4KSGaEXy2qIsZl2f+U38TnLc2MiunbJcEqdu3kbIN1Nohxc127y3/mR2CNnTKcQ60Dwqvb9Q7AidO2zZTJTvtQuZiq3fjKSPWmjwNI+IalXpWxfKed8fTwupulOWOIcu9ndVYWWT/eTxPJTHljKXffM4Q4oKryHSNw9U/JcKLACI78qtRIB1zzA0juSxRNnGnn8wsu7DviH/zNTiMWF5Uv+ocw7LXYUjZOp+v+HuCkRy9g6HTbNrv2Gr5kkh5i5Vv/AL9ZYKld1VXOs2NbOWXbznFgcgK3Lu3MjF4RERGR8FOwSgKsWltOWS6smZxA4uR2PpXOnAnlnxZnWQqt6XyhsqTdFRyimZ6kTPEFrHadOQ00W+pV+S8Lj9nXd+VzH7Ok892WwoAgs6NCcf6zJqDUV6/Kbwkxda/uTLuDZKFZj9tlmQ1i3lz7zWhKz2d47niiPvbVuzHq7FjGhNmFz9yAy1evym+xpSS2JaRUo8sgDTASDHAwAKiudQP1nHUD5b56VX5LV8yYCkkyfR2WYupvL+UBMxD1w5yRviCUGbjyFlNf/zir9zbBsCm8eU8cUMUn/uWP2mYL/kaPdAbMaOr2xGFGpjqo3WY9pzdTaxkTXi7ONQC269e72FIS2xKxaYAnz+KmF2O+ncxH/7mAH73m60qK7QXus63PsOqQ7tw7OYHEyT1I21bO4aWdmZ0lIiIiEn4KVolNZ1MCOpjuF6rTLzDbDFh50/sus3S/lqz/tBtwgSFtFMs9/1lT27OV/ryVsjojFdAxIjmgsHpL7Gl/ful+LflzCdW2tEODMaMrINUwjC68WEStORsk6M312FFE+RWIDjczTcmiQ+l+LQkp1Sjy0wA7Zgi3hPFn5K6RiUR50/laSveLDFH9LDMX1z9OwQmIckTBid+bqWqGuIFmSiDwzrL/Yr/bGNe0t4D2f5vrqd3lMoO/5izFo9brxjzXG3ZTY0txDR9juz4dS/drScSmAb6zj4/cwMndvOZXnOweRiWB+6N9fGRt9sj4gv5AzaedmRXVnQOl4Bh5Tk8VFBERkYiiYJWE2R6eP1gO8ZlsaG8x9WBGLAtYT/oNw+lJM3WeP+effoGdFZB4V0efwhchXu2Bi2ZG3dn6X7iNAFIyQyxP4wtkFFqPHvMUI4YFKawezMBlOMdE0bh/qy+wZQa9Eme/bBZTD2YDlfubiB4z1++Jfo4ZUxlAKZ9ss9eyCiej0HrsyB3EDA0MShmBI2vx5xxi13Y0hciY5eErzJ5D7NpFxNvTW/M3G8Wfc3e0r5j61cxM0Rt2g6ew+RB+/OQ3OlCAvQUDbuaRVAdNB99nuZkL+LM/Hqapy57o11HmE/6G/YM5y8fG0/72Un5/wlrPyl9L7W3KP2AEf5enERsQlDIDR71G4fAEYtPzGd7RNECz1pU1jTc+yLoai3bT1Gs8I5e3KyH9MlPKa++UQ9I/8G8Pe9qSefj1f2CYu4TXWkgJzLmzGQc9qQneLSIiInJZuyYhIeEre2NbkpKSqKys5Ny5c/auSypS94sI3zd/59mxrYr+f4rvXA2Lfk+yIaBmVDMlBeaT8oL2mxoOsdbytL/09HXMHWUdWU5h3hI2WVoIOi5wXaGYkfU6WfH2VkPZe/a0wgdZkZtJ/yOvMNvy9MOOWrW2nOn9YnnugahWZ7Z1n7yFlDGe0sr2p/qZBi7j5tljiA7Wx2wSF0/F8vA0AKoLM/2e6OfhmFHECHvk4MRW9m7yBcFC2ifwbjtq//N8GI5AVvYOox5Uw26OBkkL8qQuedRuS6RuZBnOPr7x9jFWTQef47i3bo//DXXTwec4Xj2dlMngmml5+h8QvTxIUOzjzZRYnmp25TOCTgMOFlqepAd3TcziidR6fv3CH30FzgfczH/PuNVbMPzE9jf4dWwWTySbT/W75Ru8Nak3BzYVsrzaDGaV/5H7t35irg+zD74/NbD21Intb/Cvf/FvaykoZh1rX/fFcPeSN5k/znItnSggax68VDiFZJrY/2NjFtAP1hQyxbLzTXtX88Af7+bNfx1DFKUUZD3e7hlWnvPW/7z3sAdoXbhmHiBm43Sus4wPeu6barclUuEJgnnSdC19NQMOM9J5xHYtBw9k+a3rSvDwD/mvb1tOXHcJ/znrjeCzqviS/DcrGH86jsS5rc6zbVOo/+6IiIiIXEwKVl0kkbxv/sIUrJKOyWji8PxaCMfxN4NVBA0KhTlgJCIiF88j9ZRNucDu1f3I7uQTZBWsEhERkUikNECRSFIcRVEpOL5+hvw2ale1xVN/qmvT8ERE5OI6z44pdVDq6HSgCsB1OugcZxEREZFLSsEq8ZOz1I2Tnhx5v5OzeqTDFsyNZ7e7mfHz6+lwlZbbXiZlTBTVhY+FVFhdREQuB1+S/2YVTncsz3Uy/c9j/afdwFHL9EfsPSIiIiKXjoJVAkDO0tOUbStn0debcRV0Pq1AOuNrZD8Qh4s60tp589B98hbGLS5iXFZyi/WnRETkMvVII+MdMWwOZ8req71JLIjBOaWcsm3l7GjnvzsiIiIiXUE1qy6SSN43EREREREREZFIoZlVIiIiIiIiIiISMRSsusolJSXRo0cPe7OIiIiIiIiIyCWhYJWIiIiIiIiIiEQMBatERERERERERCRiKFglIiIiIiIiIiIRQ08DvEgidd8idb8kmFXEb5zOdQef4/iLYXto+SUX99BY0vqW8+7aahrtnR4DBzDh4QQaf7ePAyX2zosv7qGxpCVB4weHePcP5+3dF130N0cy4fYmDqwop8re2VXM7yTa87q+je9QICWBrH8c4Ht98q8UvuG2jug6nm23+T11xzl3NDf29rVEynku9u+mkY9eO4qr0n/UJRXyeRZent9kr4t5bYUiwv4NExERuRxoZpVcdWZkvU5+9pOk2zvkEnAwOAmqdrV+UxN9y/VE15fz0WX0P/lxD40la+4AXzCnE6K/OZKshQnE2Tsupcpq3l2xj8IV+zhw0t4pQZWUU7hiH4UrDvFRvb0zEniCIdUcML/bwhX7FKiKGOdxrTW/l99V2zuvWkagqpGPXvOdsxEVqBIREZEOUbBKRC6Z6G/GE0c1p1oNQjm48fZoGo/XtRrQCs5B2sKxZAVbHnLYB4es6g3dxMtlxhMoa222y8AYBveGxg+qLt4MPbmyhHKehZXxBw9OVkTWDDMRERHpNAWrROQS6U7c8Gg4ebb1G+OUPsTRyKm/dCIwdPKvvr+46y/vIq1qrOnEtSZyCTR+pnNWRETkSqOaVRdJpO5bpO6X14hl5N/Vj5KCOZwa+zpZ8Z6OcgrzlrApYGyC73VFEdmFvzD+u9+TbJgymp6+Xn8Nh1ib/wK7zDTBrN6+1+B7f817s1h4DOAOnsp+lJT6IrL3DfJbd/ORV5i9aw8A6enrmJtwnLX5n5KVm0likDGhC1KzKj2f4bnjiQJqtyVSke8Zm0Ps2kXE9/K8dlORdyu1u6x9Llwz7/X/67e5PgLqYt3Jotf+hdscJ/nN1H/jdUtPh6UkkPWPUW3UXDHTks50tP6Ig7SFNxHXav0Sc0xA/ZfAdntdlCp7/RF7HSe7dtVx8Wy/JdXeGlW+mlVnGWx5T/BaQ/b1+tbTUW3VHTP2z3JUWvg+7MfXvv9xD40ljb9S+M51fsc54HsIWYg1gOy1pgKOmXFMoz84xLs1cX5jg+9bS+e1NQ3P9p2Y5xZBv9NW2Pe9hWMP4a2rY/8uW91uKwLW4xXkGLX1WS2/OY13W9cbZF0B13KQMW1p5Tszrgn8zreAz2rff6tWfj+DXo8tfbdtHbNQtWM99s9pv87bx3LttbKOtrYZ2jEztsXv9vFRf+tvWrBzw/47awj+eyAiIiLBfC0mJmapvbEtffr0obGxkS+++MLedUlF6n4RwfsWqfvl1W8iUxP6ETfifm5wF5H9xnK2Hqgm+cZ7ueuWYVT9ZQ+fmEGhVWOiKCmYzZPv/YqtB3qQdk8mP4jrwdbjR6B5D7858Cu2HvgVPeLu54ZrDrH2Zwv4idm21VwPwK033M8NParZb2kj6g6+PSKOpvJfUVwLMIT0W24nrt9wpo5w8KFnu8238eCYe0lrNsYNHXofY4cMYeztgylrYUzoJuG4fxR/X/U+Z/70Z1+gqmE3R3Pu5OxfPONWEb9xDnHVmymZdx9Vb/2EM4lzSL5vDl/UrKP5kz/THHMfcU4n/3fdT3B73wfdpv1/DB54nprf5NDs/fDAhO+Rc9dAutGHbj3f5A9h+J/tuIk3MujvKvnw7SYu2Ds9BsZyy9djOLPnBJXtukv06M6gO2OJrqvl+JGWbmTOU+n6gkGp/RkU0+AdF/fQaG7o4x+8aDxyiuPvn+K46wsGpcZw4fgp//1qbKL8fWNMQ/xgBv1dOe++8Dc+NNuO72/lswY4T6X5vsrrepM46CwHVhzloGdd79d7b6q6JfcjcVBfBt0ZS+Pv9vHuL09xvOFaRk0YwFeu05zxDBw4gAmPO+n2wSG2/+xjcz9vJO3b19JgWV97Rd8ymEHX1VMe8Pm645ybRtow67434Pj2Tdx26xdUesc7SFs4mhusx8v1BYlZNzIq3vedRN8ymEFJsdyQei0nXythb5FxbEZN6Of/OUPiIG3hKBIr/0rhuhPmce5HWpZtXQMHMGFMA9vNMcffr+WrW5O5ZZL1mBnnWd9BcdwwvMn7WVvet2vpOzaO2M/t5+WXnPnfa7lh+AD+rsH/3Ioen8ANgy5w8vdV7fucVfWW/Q62TePY33bnYG5IjaEbED18MDfc6Vnaf25Ef3MkSeUlxnnouV4mOv2+y1B5rznv0oDjzlgaf3eU49bj882RTJrQjY/M88J7nlm3GRfDDcP7Eps6mEF1nu/d/D7H+s7H6G+OZFJWf854riXvddI7yHfZisYv+Ptb4xh0/XnLuQ7QnaGThxJbeYK9e8xzu73HLC6GG4Z347OSwP0Jej32iibR9psV0jELVZvnmcEIGlX7/ZadH3sjcZ8Ffo6WGb8rd0wazA13xhINdBsUZzlnrd9TO35b2jxmxnUeN3wwiedPtHj+BPudbfHfDBEREWmR0gDlstB85BXfLCn2sKu8GXrFmDOVHiRrVE+aj2zk+dOed/yChe+VQ/wEnurnaesK5RTmzfFt99hRyoD+fe/wG1X2Xttj2mcV8Z5A1dxsvwBBtycyicWF65kF3rYLL66hosFBfOYqoyH/ALVA7EjzNQA5OJwO+LjInIFl8e57fOQGOMlffmbr65AIK6xeWc27v6uGpJtISzFmCaQlQdXvAmctRDK/v9qXnKWKaAbf0t3bH3d3AtH15RywzCioeuOvVDGAG7/pGxc2KXHc2LuRj16zzjpwc+B31dA7gRtTjBZP7bID1lkNldUc+KARkuJxDvS+OWD2U+MfKgI+Zyi827TM/mj8Qykf1Udz492WemaV1bzrN0PkPK5d1cAABpv771VfzruWGRaNf/mMRqLpbZ2U1ZYSIy02boS1pponZbYr6vK4fcXUXyun0TyPfCmz9hkjbWv8w1H/2SOV1Xx0EkjqEzDTpL3iHjJmSvrPTjHr2n1Qajk+5nkWcP4Ys2p8s37OU3W8EXr3MGdRedZ1yG8bxnViOzfa5Fn39cRZ98GsDVZ1zHrudd0xC659xyw8uhPdl4DU76o32vs7ayk0v+KvVHm+U+8561tf+35bQlRfbvlNsJ8/wX9nRUREpP0UrJLLQs0Z/5S5XbvmkO1JAxwxkkSa+dvfbGl1tXU005OYWP/msGqoo8yv4RcszJtlS/Er58NjlpedNpH4jdOJDRKo8gWcDtiCQOs5dxboM4RuACyg7mNgaJovzSV9In16Qe1RX5DL532ee3gqU8OUAtj1hdVtkm4KKLA+wR6cKSnnwEmI+8exRjpLwA1xpGv7eA5OIsjxPE99PURf375gTyjiRgwAmmi034iaAZno/t19gZj6cwHfc9BgT/1nVPmtryP731K9tPM0ngH6XtdyKidAdeC+AnDmc/9284mJ7TuP3JyyBymCBDcuN42fBT1i7ZOSYDz17R3bcWiprl31ucDzh8CaXI1/OOoLyqUYx90+xvu9tHVu2AQLpkbfcj3RbV6vYTpmLWnnMQsP8/pKuqlTD7gIXTt/W0IU+Btq1dLvrIiIiLSXglVy2Uvv2w/oScqU18nPtSyt1ai6jEWljicW4OwnQVLKnPToBQydTsrGMr/FOdR/ZGPRbppwEpNtvO42dhRRDbup8da96irGDUSbTxxL6UMc1XwUjr9OBymwHqy+iTF7AqMGSQv1Vi5bA42b7OjbR9sCd9aaTV0gyI2ih1+AyR7osTCCWuHUnd69gwcxg9VHinvI9iTJ1uqShUHVO+U0WmZuXbQZhmET+BROv5plHeIg7R8H2GYCGaL7RwHR3PhwuL6nRuqr7W0mywya0BhBrujhMeb7Wvr964pj1rLwH7PQVL2xj3c/aPS79gL+cBBuF/W3RURERMJFwSq57O06cxpopqRgFtl5gYtREP3K0XTwOUq2uYyA1HJrGh+Ai3MNwMebKZmZGLhYZ2Lt2snZBk8qoDEjq8m1M0gALMzM1LCAv+j76Y4zfUCQmS9dqTvOuTcRV19NVf0A0uYO6NKbtouu0rhh80+XubRPRwz1CV6Bs1w6y5iNFSyIWbhiH4WWlCGjxk4jH71m6TfT5bpMZR2n6j2pgGZw47KZqWEWlq4v511rcPiDzu193EPGOoOlVjXWNGGkhwb5Lts9s60NrQRfW1J1rNqXCjgwhsEBv39dc8xac1GPmY0xk20fhSsO8VG9EUDv8oBVC8L/2yIiIiLhomCVXP7ame5XVmetdxWa9BuGR9Ysrfx7OXrQDUOnM/yJHEuHPd2vNeup3eUyUgHTJ9Knl5uz+6xPAPQ360db2bp1Kz/6vr2nfeJGDAiSymVzCdKeor+ZbNRXKijnwC6jplJaJ26gGj/zr2PSGcaNZRTRHamv4tWRdLnO8btJt/JLQTJrvgSpzRNSulSHzpUQ0/3MlJ6uqRXVGrMuVlIf4oIGNyKYmUbXVj26dvGk/xW0sM5wpq4FqfVm6ER6V0kVH9Ub6zRmydl+/7rimNkY15JFOI9Zh53HtdYMWHXJ71LnflsCjllIgv/Oxt3dtTPWRERErkQKVsnl7/QL7KyAxLvWhVRM3ZiJlcDE9OAFzo1g1nDSzXWlp69j7qiIClUBcOHFW3F9DFGpi4g3U/nwpPf1Gs/IgFlXQeQfoBYnztzxRAUrrO41i1vM9KikCYu4094dqoEDuDGEwuqeArUXLe0pJYEJ1mLDZv2q6NuTO1aA1xtgClPhcvPGsn3Fne08AZCbLt4sBvMm/cYp1llqRjqXNQBk1PUZQJq1js3AAaTdHixdyqo7zikdO1eq3imnsXcCE1qtnWPOwLLe7KYkdHmqFHiCJgNIeziB6IseLOsEs56XtUB83EOdSWlrOf3PyyxGHvePIzt8vfq4+eiDxoBrP+6hmzqRlmwETaKHx3Hj8OjA378wHzMjUO4LEkd/c2TgusJ6zELlCJyxagabQ51l2V6h/raEdMxC4gmQ+Yq3R39zJGl9G1v9N09EREQCXZOQkPCVvbEtSUlJVFZWcu7cOXvXJRWp+0UE71uk7pfXiGXk35VA2Xttp/MFDSo1HGJt/gvYYzABY23jZmS9Tla8te9TsnIzwbsfd/BU9qOkEHz9HsZ2TlPoKQYPwIOsyM2k/5FXbIXY27KK+I3Tue7gcxx/0TMDKofYtYuI72WkB/rajbH2yWa12xKpsNWkil5u1LMK1md1579v5F9ujwJO8psOFlo3bgCaONDqE8aMlJjoDw4FrSvVPmZ6jb0ZMwXsDbfxmPGHE4im2rZfnvd6nj7XyroC3msIuOGpL+dd61Op2iMlwSj87uXbZvDj2sJx9H5eK/8n7IUi4LNZNPptszvOuf51sfz7PQKPr9/TDb0peZYBWL7HDgncJgHbtY2pL+fdAkh7OIFG7zhzTBv7EnT/TfbPimV8sL5QtWub5rnh+1wdZDtXGz84xAGSg5yjbWvP/gc9J63XnLlf9vcFE7Cuzly7WK+74L8VIR2zoNeuybZ/fsetvpx3137OjQtvgvYesxCF/D0F+QyhfB8ta+F3zk/gdR5sm20fs+DbCvb767euk3+l8A1IC3L8RUREpGUKVl0kkbpvkbpfcvEYwSoXrpn3tn5zMmERGx+/jaiTv2Hqv3UkVGUELQYfb+2mwnPTRvAbOrmqxT00lrS+7b+RvlwZN7wtBDdERERERK5gSgMUuaqtImYoNB3c3ObN/6xv3UYUTfz5fzoSqIrkwuoikciskdRqGqSIiIiIyJVJwSqRq1YOsWunE9uwm3Jv+mCgO/99I1u3buXb1/+Zn0ydyXPv2keEqKScwhVtpZqdx7X20jyZTiRyeJ5MGfzpdyIiIiIiVzoFq0SuOquI31hGysZFxLObo3OzuWAfYvH+f8xk6tSpTH34Od63d4pIGDlIWziWrIWjuZGrJ91RRERERMRONasukkjdt0jdLxERERERERG5OmlmlYiIiIiIiIiIRAwFq0REREREREREJGIoWHWVO3nypFIARURERERERCRiKFglIiIiIiIiIiIRQ8EqERERERERERGJGApWiYiIiIiIiIhIxLgmISHhK3tjW5KSkqisrIy4WkeRul9E+L4B5Cw9zaKvNwM92b26H9nF9hHhdgdPZT9KSi/P62ZKCubw/Gn/UZfUiGXk35UADYdYm/8Cu+z9FjOyXicr3tJQUUR24S8sDe11nh3bqqAggXtftfddJSZl8+unU4mmnF9mvMwr9v6r1aCX2T4Otrz1GHn2vrDIIXbtIuK916abirxbqW3tAgiHMH+uH6wpZMow84V7P6sfWso7tjHcs5Q3/3UMUebL0l9l8fh625hLIHp5Gc6hvte12xKpyLeOuEQmbWLe0+OJ8byu3836KTOo8h8Vucz9r9uSxM/X2TuvQhlNHJ7fzJGw/5tv/PvlBCiNI3Fud/sAERERkTZpZpUAsH5pPxInJ/Dcn2D8/NPkZ9hHhNsens+fRXbeLLLfK7d3XlaMQFUzJQXm58mb1clA1Zfkv1mF0x3L5qs1UCXB9VrGW+OSaTy2NSwBneDWUzs3kZKZiZRsc9k7u86nW9nXkMy0e5dxj72vnYxAVSkFWVlkZRVQ6hjD/DU/8B9kBqrYu5qsrCxW720i+Z/eZGlnNx4Gjc+Yxz9vN032zktp+wzWZCTxbEYSv72Ip0ao4pYfYnHxdlLtHRJccRRFpc2Mn1/PKntfh5n/fpXGkTg5QYEqERER6TAFq8TP+qUOXDTTP9necxU6tsQIPLU6q+pBbo4HKt4N26ywVWsrGO+IYfMDUQSf5PFNBr/5n4x+8z9xLrjB3nnl2J7PdzLmkxGWWVUZ5BWvprh4Nb9e7rR3XiZms+7eMUSf2sr9f91p77wC7GTRjq24eo3h38fOtne2ww8YPQya9hbwUwB+yqETQOwQ7raMuvsbI4milN8vM+ZbvfPHozQRRV/99skV4R7+7a1V/Jd3eYaHrReAacHceHa765j+ZhM59s6OyDjHKEdPdhcoSCUiIiKdo2CVBNV/0Jf2JmlFc12YZodlNJGZDK6C3iyw93nMuplYyjh1wE3UDV+nm71fAs0ZgZNy9u5pIHrkWLp84mAXuOemyTgpZcu+DfauK8gG5uwthcFTWTfI3tc+Uf1CiTrFMSQCZlKJhNXdD7HyrX9g2Mnf88P7F/DD+xfwm5O9GPPPwQJWXyM7Lxa3o5Z5S8Pw737yFzjsbSIiIiIdoGCVdJEHWZH7OvneZRkz7ENCZl/XOp7qZx9j1piyjst60D4iNOFaTwesmlKLo430v+ibE6HsQ2r3HKep13Acd9kGzHqC0W8+S+xdEP28MQPLWJ4g2jvoBmJ/+p+Mfv6bcNdMnN4xwWZrmWNbGNNtwbOMfvM/GTzL702+9/10ZvsCapOy+bU5C6q4eDXFBdktB5fsY4sf41H7GODRlARwHWPhuy4aezvJmGQbMOcxiouXsGISPJrX0vqcrChYTXFeRsB2A2drmWNbGJOxfAnFxavJm+P3Jt/7Aj7zbL47Iip4+l96PsM3ljH8icB5Ed2eOEzKxsPEplsas3eQsrHMsuywnBehM9Ztf+8q4oPti32by1tJOvp0K/sawDmyo+mApZxxA8NG8wOAnJeYMgyajr3jV7PqncoqIIqR37gbuJulOWOIopRDwacztiKH2LVlpKzNDzzPg303ZpvveNi+n1CZ64nP9m+OXh5sX4zvpbPfefus5HvFJ1nsXWzpeZM2Ma/4EJmTIDXPMq5gE3HWcd6x1nV5lkNkTvJtJ+cOB+Dkvta2a2pzm5exyd9OweEu4T+ffNvbtu3JV9nv7sWYbwe5qoqjKCoFx9cbw5gOKCIiItI5ClZJ+PV7kg25mfQ/8oq3hlNhRQJZHQpYPciK3EwSK4p89aDy3iVm0pNY7+/S09eRf1c/S92oIsriMzsWaPKk/+W9QkmDvROzOLwnmJVJItBz1KNtB9PadJ60ZHAf7dFC+h/AN+mdCLUf/gHe+xN1DQ5i7rAHlwAcDH7sP0mmkEMP/DOHHljLqYZEku2Bo8QsRj82nLqX/9kYV1hGVNpcv8BT9PPfg9fNfssYT8Dqwqr3qQVib/6m700Ad32dmF7Q9Lc/ccG/p3Xe9L/5/LK1ujhmAXb25JFhjs9YeYbMPHtoK4NUJ7hKimH7Pj6s78XNE+zBJYBejHt6Nd9lm7m+PPbWJ/Bde+DIOZnip518uNLc5pZyou/I9Qs8PZqXDevMfssYT8Cq+JlduABnim1fJ43l5t7QeHQffvWOB6XgpImjp4Kk/+3aydkGiHJOtAUocnA4HfBxka84eno+w0ceMOohzUykZOZzVDQ4cXZh8KLbE4dJmdyfijzPNjdTO3R6KwGrnRRXNEGvkWR4i7y3xzssfbsUSGZKYSGF/5QM7v38l5nu57W+gP1uiBo3n8LC+YxxQOmvHjdTB9tjPW6XG3qNwmELOnUbO4ooXFS+6LmiVxGfDeXe45+I62MH8bkdDFiFIj2f4Runc93B5yzb7Nrv3AguTSdmzwqe9da4cnJfQODIwe1Pn+Qbpz3jNlPWezw5eSt9Q8yi6HjXtYIP6gFc/DZjNEXbn+bn5jbW73Gb7cZrY5nEQcsWARKnneQ+Nvtt87vLA4O9l6d7GJUE7o/28ZG1+eF/YIwDSLqJydZ204JDMUAdaY/Ye0REREQuDQWrxOZaatz2tvaZMXY0PRsO8dquPd62TYVFlJHAxPQ7/Ma2qd8g+gNlJ6wFy3/BQr86Ug+SNaonzUc2WupG/YKF75VD/IQOBo5aYykOn1dEGdBsCcxl53XwqYaPnMNJT468/zV7j4+ZAlj/OsDfcP+t5VTApgNrOfTUH8xXxlh6XW8bW0bpA4upfc98+fqH1ALXxfkCYI1PWfoBXi/kVAOW7f6B+jIg8Wa/m99udwwnijKqVv3N0hpGzr5E08CH71oiWtvz+U6u7bFWZgrgwXUALoqPtpwK2Lgnjwzv+42x9O7LcL9R5fwyYxkLt5sv1x3DBcQN9gXAXsm19AOs28beeizbLeagC3CO8JsJljHBSTTlFD3jH6XLjU+GhqMUBw2ethAsSZ9In15Qe9SSULorm+PPWBNM11O7ywU4ibHN0AmPVfRPddB0cI3laYILqNjmgqGZLQZo3j51lEai6NuhYBWw/hCl5n827V1NVrAnAfIO7xzzlC83irF39EmAF/YdoQkHfcZaAx6eYOEBGr1tC6iYm+0XvG0s2h3kveETnTmeqIbdlHsDZtD4zGZqcTLQPgMuTFKnjSemfje/fMa3zYO5mynDyTfsQSHXZtZ4xz3NERfQb4h3plPchFHE4OKP3jHrKdpunLOjAmYmhsi1mWdznzZfGNuMGXl3+2ZX5bxEYWFhi8tLORgz9t4I7PMubyw166j9gJfsfdbF/nCA1tw9gFigttJzBcCNC5/hv74Nv/lNOdCXgQGpgMCrPXCpBICIiIhEEAWrxOZrfHK6M+kARsHx5vI9tqLk5dQ1QM+YBL/WNp3+lBog8a7XWTHC3mkaMZJEmvnb33zBMQBq62imJzGx/s2RKmfQBaAbn7TyCHFPCqDn5vdC1RkIlgoIfF7lHyS6sGoxhx540XLjDDR8Zpv19AdOPfDPuFoNMP2Nc5/5tzR+WAYk0ts7I+sGHDc4/PY17FxnaKQX45420vda4kkB9BRpLz51BoKlAgJVp/yDRMXPLAss8F5/huPW1xSTmzGf79gCTP5cfGwLYL5SUg4kkOq94XaSMbKX374aJjLUAbg/xpfU4+/Ci0XU2gIenlk9dfl+QwOV13TdE+ey04jFzdl9tihQeQ1NOOjR0s9Bw8dUAXGOifaett2zlDcLp+CpWBU1boqRDmgGBN5cYoYH1hQyf1yUOSqZfzDb717yJoWFL5nvCdGubCo/ts1uCxYsDGbXJ3xubwubVcQMhSbXTtt17uJcA0RdH2yGYWetZJQT6o6+Q5Vfeym19RBjqyVWVuIJGgU3sF9LFZDc1LZ2ybWirW2GZP3jZGVltbgYgc93WPpQYJ938QZRf8rj9j7rMq/98/0MyTz8+ir+OXY3P7z/v9hm7/Zj/KHK0e8Le0e7rBpdB+6e7Gzl3zERERGRUChYJQEWzE0gcfW1ZG4rp2xbOx9pbc6E8k+Le5383EdJ6dAsiV+w0EzHS7wreJpdet9+QE9Spli39zr5U0bT07qqy56RAtj0WZmv6fUPqcXB4PtsKXjhZKtpNfrN/yQ50TbGnG3lTQW86+vE9HJz6reemV1dYHs+38nYhstM3wusMYU3BbDxtKUA/rpjxnumBZtbFSYBtbRW8117XMCcbeVNBZw0lpt7N7B3S0fu8hZQ5xcsMWb1NB3cHBAsjF5urV1URkrueDwhm3DrNqA/4CA+92Jt06w95d7P6qwssn68nyaSmfLGUu6+x5itU1X5jreOVemvjGBAwQkjHfClHEjuFwXuM96ZWaFqPOrym93Wbewoohp2U2MLFhq1vqzHYzpdFk9PH8J1QFTqIts2FxHfod/jEEwaQgwQc8dCW32phdze2z64bQe37KbOb0ZWDpmTnFB/hIPW2Yticw//9tYj3PjRq/zQUruqq6xaW07ZtnLSDiWQ2OKTbEVERERCp2CVBFi1tpyyXFgzOYHEya08lS4YcyaUf1qcZSm0pvOFypJ2V3CIZnqSMsUXsNp15jTQbKlX5b8sPGZf32Vq1s3EAlFpcy2BoyzjRteWghc2d83E+VgaUWWe2lfGUmqJlxnMNENzP7rdMZyohuO4remDXcKY1eSpCwUJfNcasJozAicQfUeuJXA0GSeBKXhhY9bSinZ5al+1VH/LTDM09yNjgpPoehfFHbwB9wuWpE+kT6/AGU3Ry8twDnVb6kclUpK3u8tmVl2orgFs27MsFW3N+mq3ZPo6LMXU317KA78qBccYfpgzkiiaOFMKdw+MA0sx9Z/OW81+NyT/05v8QyxQ+0mQtME25B+wzG4zg4W2GU3dnjjMyFQHtdusx2EztZYxYWXO2mqy1KvyW/xSQsNk+yfUAXWWelV+izf9LkTO/rbg10JuZzfrp8ywzdy6yCI1DfCdamqBYd/+B/jNAp5eYUkHHNgXOENlu0/uti2Ym0Di5AQOjC6n7M0muibBVERERK4mClaJTShFvlvTwXS/UJ1+gdlmwMqb3neZpfu1ZP2n3YALDGlhwk/0zYnQcIBjlqCRp+C5fwpe+Bh1p0KbIWUUWk+k9ywjBbC1wuqzfrSVrVu3svHf77R3ddy6l82AVV+Gmil+j6YkQP1BVliCRtbAli8FL3yMulOhzZAyCq0nkDrHSAEMKKwOwE4+dgOOoa0/HS9/MxUNRrDEmNVzBLdfLq6REuZXcD3cstP8Zwm1le7Xkl5DjVlQ7iAF5UMQZU01W/+4MXPKEQUnfs9S7ySTOIZ4D+g7LF2/nyaiiHI0sf+tjqRdLaDmoNuY3RY0WGjWsAoy2yp8zO/Yq/3pfp2/NoOn+3WMOYvK5SmGbi4tBKqqTtUA/YkLkuIbdhGbBvg2R04C7hL+5zVrezLjb+wFJ//aQjrgF/R3gPv0tfaOdllwKAYczUxs4d8xERERkVApWCVhtofnD5ZDfCYb2ltMPZgRywLWk37DcHrSTJ1nOsLpF9hZAYl3dfQpfBHi1R64aGbUncEK3JopgMECQGZR9ICn8YXBhaozgPWJgzcQ+9MgaYDgLbQemzWXwb1aK6w+i1uSjP+KuuEuOnpLnLF8id8T+PAEpzjDx9vxpQAGCwCZRdEDnsYXBsWnzgDWJw46WVEQJA0QvIXWndNyGdc7sLC6R15FaQhPxzMKrUc5p9Pf6aB2l38hb0/ggqFpvll42Ts6nJJnzJqyFGbP3kHKZNuHNGs5xU5u39Pu7hk8kmiaOBO0oHxrfkrB3iYY9g8sDRbZM9vfWfZ7SolizP3BZqy01N62C/uO0NRrFP0zRxEVEBRcz7mz+BfCN5/U16E4uzlrKnakJ1F7FfEB6zIL6A+dzvCQiqmH49o0C6A7pzPPXky93dZTddq/4HqrXDXU4eD2aZanCV6Ftv2mBLcjhYcX+gKGk194hDGOcn7TUkrgI+dwAjWftvKADxEREZGL6JqEhISv7I1tSUpKorKyknPnztm7LqlI3S8ifN/8nWfHtir6/ymeW5d24n9a+z3JhoCaUc2UFJhPygvab2o4xFrL0/7S09cxd5R1ZDmFeUvYZGkh6LjAdYViRtbrZMXbWw1l79nTCh9kRW4m/Y+8wmzL0w87atXacqb3i+U5e82PWf9/e/cfZGV15gn868YxDoQWDajloLdbMaPxd9zVCEpi1CqpnskUYEZtZyCpgUWLzM7KRF3FtaiMmJD4I5OEUqJbK0wkcVa0zG4XVKlhAqITE4MaBjOx1e6I6QlQKI2wrRPX/aO76dtvt9ANDbw0n0/VreI9z7nvPfQt6KpvnfO81+es+qPy5ncLT+br9LFv/H1Oqm3Oq39+T96Zdn3Oqq/Npsa/yZuLijO7fCKj/ses/FGez8t/tbh3AFblsJv+Lqee293keFPj32TLaX+fkz7ex3s7PzvNjVVPIuxt2p1L8/m6ZNvPv5WpX1vVo3bJ7bfllgv6TmXeeXZhj0bm1y4shEBb1uSOyUs6wqnrvpynrjgqP/164cl8nTre25L/dcl3c991X85TV1TS9MgNmXlvcWaXsbnj0Zk5P1Wf8SGKf4emR27ImrO/mS+M7uO9nZ+dpuVVTyIsmp57J03JsS9/I5N+tZPdRuOX5OSZ4zI8TWmaemmvflW9Ao2tz2TdkqQyc1z+7/LOY3k77tGHrc9kXdXT7LqOtXVoStPUh3P4gjk5smleXql6+lzPeZ0K9+p2ceZdemPOa1uay557oFjsl8/e9o9VzdOTvPZo6v86+Xbj5JyUbfnZXX+euT/+q87rLh3j/3Rh53tfe3SAO1qSZEZGLejoB7Wp6+f5IfUOTWma+nxGLr4yf7im62fWV+jUpfC9Fr6rTctrs+GYl/LJsWt7/mz7/E7bsn7hmb122e3s3+axt7+YGRf03fD87WfvqHqqX5LLHspf/7dxGVk9KW35+dfPyrInuutvP1KXf6j6N3fOwtfzJ6Orj/l9PX/51JXpKx9vLrw3SXLdE/nvV1T/p9CU/3PJZVmTgXzmEPDZq/P1vzk73d9WS360kybrH/q7Z6D+85Y0T34vz3xzdBo+7L8zAIB+EFbtI2VeW0+DFFaxey7Zlpdu2JQcqD//fgVl9NCvoCz53CmP5OZTk+eevCJzBrzj6ABy3HfzxPnHDv2/J/3QGVRt6R0knbPw9fzJ2Krwi93X+Xtnw6OVXPq9YnGAhFUAwCBxDBDK5KnhWfZqUvPpzVky+CfU9rquvlobBVX91tVX6x93ElQlyY9/tTxNGZ7zzv/qzntXHdCm597zT0reXC6oYseTBd9e90+9djy1bmwrjLB73s+SmZtS0zYqD+9pUJUkrx4a3wwAMBiEVfQwY25bxmZY1q46AHf1DBE3zRqTZ9q2Z9wNW9LVjeZAcNhNf5eTatvy5qKdHyuk2yW335YvjN2an96782OFHR7IdU/+LO+M+E+5+bzpxeIQcHHmXTolY7f+LF/bzeN/DDGdTxYc+cnP9uxZddlD+cIFNcmWtVljV9Uemb9gfcbVjMzDe3r8r8tTh2ZDtmfc5HeLFQCAAXEMcB8p89qSZMbcjZnz6e1JkqbBOArAHuo4jpkD4Lvo6JeVJG0f2lOLnrp7bW390J5aH+q47+aJ85NHHvtyFhZrB7Kh+vdiD/Xds6pXjywG7pJteemG7Vk76Ef2On5/jU2SV49N7ayPFicAAOySsGofKfPaAAAAAMrCMUAAAAAASkNYBQAAAEBpCKsOcpMmTcqoUaOKwwAAAAD7hbAKAAAAgNIQVgEAAABQGsIqAAAAAEpDWAUHjPkZs7g5J18/o1gAAACAIUNYxUHnmvpFWdIwO+OLBQAAAGC/E1YBAAAAUBrCKgAAAABK45BKpfJBcXBX6urq0tramvb29mJpvyrrulLitU2aNCmrVq3Kpk2biqVyOPWrWTJhdF549Lq8ed6i1I/pKrSkceFteajX3Er39fplaWj8YcefR8/OA5PPyrDuak9bX8yCJXdndecxwfojuq+T7vdvWDktt7ycJBfkxoZrc/aWZWl47rge996+9r5MX/1skmT8+Hszq/JKFiz5bepnTkxtH3P6b37GLL4yf7hmXl655/6OofFLcvLMcRmeZNPy2qxf0jV3RkYtmJMxI7qu27J+4ZnZtLq61pSmqZfmna4p6b5fqj8jSXJR5vzP/5pP1byeH035ShZVVQAAAGAw2VnFAWBYzp68KPVZloaF09Kw8L68sLWS+qq+U+PH39sZak3rnLMszWMmZkn9VR0TNt6d6Qs7ao3rO8OpzuuGhdPSUB1MDcSYiVky+eT8uutzV7Zk2OnX5o5Tq+aMOCuzZn4mb+9szu7oCqq2PpN1U6uDqvkZs3hOxrz1cF6YWpsXptZm3ZpkzMyXMmp8ktyfTaubkozNyIYed8xh552e4WnLW89VB1VJPjMhf1yTJHU544s9SwAAADCYhFUcELavva97l1SezeqW7cmIkZ07la5K/enDsn3t4nxjY9c7fphbVrYkYz6TG0d3je0NLWlceF335768Ls1Jjj7qgh6zmlfues7AzM+YrqBqVkPeq6ocdv3EjEpTmm69acfYe/d8J+u31mTMxPkdA0uez6Ykoz7ZeZ0kmZGasTXJb5Z17sCq8pOV+de2JHk9v3ywUAMAAIBBJKzigLBhc88jc6tXX5eGrmOAp34ytdmeX/+6cKxu09vZnmEZOarn8KDa+naaewz8MLcsnFY44teSf3m56nKPXZwxi6/MqD6Cqu7A6fmex/tyf9rfSnLk8TksSXJT3v5NkhPOzce6poy/OEeOSDat6w65uq3KvC9NyRRHAAEAANjLhFUc8MYfNXrHUcElM6teO+tRdQAbfs64jEqSt94oBFVJMjaHj0hywpU5e3Fzj9fYE3rOfGfZM9lWdRTwsPNOz/Ctz2TDjuOEAAAAsO8Jqzjgrd68Mcn2qn5VPV8dDdGHjm1r5uWF5U0dgdTt1cf4kqQp7VuT/Ka7X1WPV/VOrNUr8tbWrqOAHTuytjWt6CMAAwAAgH1HWMWBb4DH/Zrfru531T/jP3FyuXZpLbk069a0JSdcmZOvn1FVKB7325nORusnnJuPjb84R47oo7F6lWl3Ls3SpUtzpwbrAAAA7EXCKg58G+/OivVJ7YR7+9VMvWMnViUXj++7wXlHmHVyxnfea/z4ezPr9FJFVUmS9+45M02/SYafMydjqp7q986yZ7JtxLh8steuqz4seT6bMjZjZ47L8L4aq+8wLWfUdfyp7jNzclGxDAAAAINEWMWQ8FDjtCxYm959qxpmZ3xx8su3ZcHa7Rl2+rV9zlu9+ro0ru/ugTWr8koWLFxWaKReDu/cOi/rtyajLm/u3mG1uiGvTH04m/roW1UdanXobLSeD2us3mVRHv/5to4/1hyZE4tlAAAAGCSHVCqVD4qDu1JXV5fW1ta0t7cXS/tVWdeVEq9t0qRJWbVqVTZt2lQscZD42O3NGXtCU5qmXlp4gmDBZ+Zk8X/5VIa//qNM+YpnAgIAALB32FkFB7X5GXlCsm3NwzsPqpJM+9NPZXi25Rf/W1AFAADA3iOsgoPWjIxacGVGbX0mLfd8eGP1i25enKVLl+bzH/9FvjVlaub9pDgDAAAABo+wCg468zNmcXPOXjwnY/JM1s1qyHvFKVVWfW1qpkyZkilfmpdVxSIAAAAMMmEVHHRuyvqptXlham1e2EVQBQAAAPuasAoAAACA0hBWAQAAAFAah1QqlQ+Kg7tSV1eXzZs35733ynWA6Nhjjy3lulLytQEAAACUhZ1VAAAAAJTGHu2s2rJlS7G0X9XV1aW1tTXt7e3F0n5X5rUBAAAAlIWdVQAAAACUhrCKJMmMuRvTvLwlzcs3ZsklxSoAAADAviGsIkly/9zRqb28knn/nIy7QWAFAAAA7B/CKnq4f25NmrI9R59UrAAAAADsfcIq+nT0ce8XhwAAAAD2OmEVAAAAAKUhrAIAAACgNIRVFByaDW3FMQAAAIB9Q1hFwUfyxsak5tPvZH6xBAAAALCXCavo5aZZldR+89BMXN6S5uVbhFYAAADAPiOsopf5C1rSPDP5zuWV1F5+RG4qTgAAAADYS4RVFLybc09K2tYdnvuLJQAAAIC9TFgFAAAAQGkIqwAAAAAoDWEVAAAAAKUhrAIAAACgNIRV9DBjblvGZljWrvpIsQQAAACw1wmrSJLMmLsxzctbMufT29P06Og0PFWcAQAAALD3HVKpVD4oDu5KXV1dNm/enPfee69Y2q+OPfbYUq4rJV8bAAAAQFnYWQUAAABAaez2zqrW1ta0t7cXS/tVWdcFAAAAQP/YWQUAAABAaQirAAAAACgNYRUAAAAApSGs2qfm5/dzm9M+tzntfzm/WAQAAAA46Amr9qmbcujc2hw+9+EcetKVAisAAACAAmHVfnFTPvLTtuTjx2fAj2IEAAAAGMKEVfvTyKOFVQAAAABVhFUAAAAAlIawCgAAAIDSEFbtJ4ds2FAcAgAAADjoCav2l9YN+UjG5v2JM4oVAAAAgIOWsGp/+W1D/mBubT4yak7a5zbn34VWAAAAAMKq/ea4Jfn3uc35f+tqc/jc2vzBsvuLMwAAAAAOOsKq/eSDs07P+2nKf3i+WAEAAAA4eAmrAAAAACgNYRUAAAAApSGsAgAAAKA0hFUAAAAAlIawar+Yn/fPr0lefd4XAAAAAFBFVrJPzc/v5zanfe6V+f3bz+Sj/3BTcQIAAADAQe2QSqXyQXFwV+rq6tLa2pr29vZiab8q67oAAAAA6B87qwAAAAAoDWEVAAAAAKUxpMKq119/3RFAAAAAgAPYkAqrAAAAADiwCasAAAAAKA1hFQAAAAClMSTDqs+d8kiemLQsT0x6JPNGFKsAAAAAlNWQDKt+/KsrctljE/O1l5PzLhVYAQAAABwohmRY1eXHv1qepgzPUcIqAAAAgAPCkA6ruhxbc3FxCAAAAIASOijCKgAAAAAODMIqAAAAAEpjiIdVr2bz1uIYAAAAAGU1xMOqFflNW/KxU6dkZrEEAAAAQOkM8bAqWfjcxFz25OZcPmlZnpj0XaEVAAAAQIkN+bBq5nnL8sT5yXcem5jLHvtyFhYnAAAAAFAaQzysmp6z/yh5Z/2K/LhYAgAAAKB0hnhYBQAAAMCBRFgFAAAAQGkIqwAAAAAoDWEVAAAAAKUxpMOqz51yecZmW9a9uaJYAgAAAKCEhmRY9blTHskTk5bl5lOHp+mnV2TO1uIMAAAAAMrokEql8kFxcFfq6urS2tqa9vb2YgkAAAAAdtuQ3FkFAAAAwIFJWAUAAABAaQirAAAAACgNYRUAAAAApSGsAgAAAKA0hFUAAAAAlIawCgAAAIDSEFYBAAAAUBrCKgAAAABKQ1gFAAAAQGkIqwAAAAAoDWEVAAAAAKUhrAIAAACgNIRVAAAAAJSGsAoAAACA0hBWAQAAAFAawioAAAAASkNYBQAAAEBpCKsAAAAAKA1hFQAAAAClIawCAAAAoDSEVQAAAACUhrAKAAAAgNIQVgEAAABQGsIqAAAAAEpDWAUAAABAaQirAAAAACgNYRUAAAAApSGsAgAAAKA0hFUAAAAAlIaw6mBxzGn5/uyr89j00zKhWKNvfmYAAACwzwmr+mP07Dwwc1HuOLVYAAAAAGAwCasOFr9ry++S5K22rCzW6JufGQAAAOxzwioAAAAASuOQSqXyQXFwV+rq6tLa2pr29vZiqQQuyI0N1+bsLcvS8NxxeWDyWRnWWdm+9r5MX/1s77kjuq6354VHr8s3NnZcXVO/KPVjqqYXNK+cllte7jwmOPmsbOi67nRN/aLUH/FiFiy5O6uT5NSvZsmE0Xnh0evy5nnV925J48Lb8lCS5KrcMXNisnJaGo+6N7NO71p99Zy9Y8LF9bn+nJrugZanM2npG4X6ljx+99N5cMfo8blr9oU5Zk1j/mJF247R7vnd99vWx5yu95+44/qNwv2TpCa3Tq/PuTtu1ZbnH2rM7b/rManX5xXX3+WLU67On1W6r/teV/9Nu3NpPl+3Lb/49tTM+0mxCgAAAAzE0N1ZNWZilkw+Ob9+dFoaFk5Lw8qWDDv92qq+U1fljpmdodbCjjkL1iZnT743N47umPFQY+d7H30x2zvDqa65DQt7BlP9NyxnT16U+nR97n15YWsl9Q2zM75qVu2ERZk18ic7nTOYOoKe5PmHfpBJd3e87tl8Zu46ozizP2py6/Sre93vezkztx5TNe2MC/PY7AtzYsvTO+ZMurslZ0w5vmrS8blrdn3Ofat7zj1rknOvqe9xr/6uvyOoeiOP7/i8H+TJoy7qua4BmZYz6pJkeP543EXFIgAAADBAQzesSksaF3bvksrL69Kc5OijLkiSjB//mdSmJY2NP9zxjtWrF+eFrcNy9nlX7RjbG7avvS8NOz732axu2Z6MGJna6klbX8yCXc0ZRCceVZO0NWdl1W6llSsa87e/rJ7VT2ecmXNreu9+Wrni6arrmtx6/vF97H56I3/bYzfXmTkxb+TxqrGVK1bl+baanHthd6jVv/XXZMyRSVpaeuzcenBp711a/bcov3w9SbblX59ZVSwCAAAAAzR0w6qtb6e5x8APc8vCaZ3HAC/I+MqwZP26wrG6Z/PmliRHHLfXdjAlyYbN1UcRk9Wrr0tD4Yjf9pZnO44O7iOvbW5Las7M9dNPy4RicYC++InjewVHvRxzfE6pSV77de9jet1qMuGkml7hUtKW9W8lObJmx1r7t/7O91UuzGM9dm/tmUVfmZIpUxwBBAAAgMEwdMOqnapk5IjOo4IzF/V47axH1VC2ckVjJj3xRkfgM/vqPDb76t0MdDp3L+3qCXpHH5nhactbG4qFakfkyJrOcKlrTZ2v6p5TGcD6H1z6g9yzpq3HPb9/cVWfKwAAAGC/OkjDqpa8vTXJ+u5+VT1eXQ3RDza/7O4L9XjL7u5A6r3rqU8b3sq21OTIo4uFalvyVltno/SqHlM7Xg/8S89ArJ/rX7misXNeY55vS4afUy+wAgAAgJI4SMOqAR732/jbbKjqd9U/V+W0A3iX1oNLOwOfXYVOZ1SqnuTXoeNIXm0m7Kxp+e/a8rskJ36id5jUrZ/BVx/6t/623P5AZ2B11BHFYr9ddPPiLF26NItv1mAdAAAA9tRBGlYlDz33YraPOCuz6vvTTL1jJ9aw0yfmmmIp3WFW7Yld97oqd8ycuNeaoQ++mtw6/cJ8scfY8Tmj0vM438pNWzrGu56wd8aFeeyy3mHTyhUv5bXU5Nxret5zwsUXVj1174083nkcr+eupuNzV9VuqAeffinbas7M9X3skOrWv/Unx+euYk+rzt5Z2zZvqR4dgIsy4RPDkyTD/+OfZVqxDAAAAAzIIZVK5YPi4K7U1dWltbU17e3txVIJXJAbG67N2XkxC3Z5nK/vUKl55bTc8nJhsI+5PeaNnp0HJp+VYVW1xqPuzazKK93rOPWrWTKh8iH379LxOUevva+zGXyH8ePvzazTN6ax0Ih98Byfu2Zf2GOX1LY1jfmLFW1VI8mEi+tz/Tld4dIbefzulzJmen1OebU4tya3Tq/PuVU5VF/36x14vZHH73660FC999qS5LUnflD1tL/ec/r8vGNOy/evOTMd8VKHnvfZDV+8M0v/tC7Jtvzi2xqtAwAAwJ4YgmEV7GvTcufSz6eu7Rf51pfmZVWxDAAAAPTbQXsMEAbLRTdfkrokr/9EUAUAAAB7ys4q2F07jv+9nh9N+UoWFesAAADAgAmrAAAAACgNxwABAAAAKA1hFQAAAAClsVvHAAEAAABgb7CzCgAAAIDSEFYBAAAAUBrCKgAAAABKYw/Cqnfz5PKWNC9vSfOCd4tFAAAAABiwQWiw/m6eXP5vGfvqsamd9dFiEQAAAAD6bQ92VnX5aB7+52HJ6N9nRrEEAAAAAAMwCGFVp5rfZ2xxDAAAAAAGYPDCKgAAAADYQ8IqAAAAAEpjUMKq+397WHEIAAAAAAZsUMKqvHpo2vJ2Js59v1gBAAAAgH4bnLDqqeE58/JKlo1en+blLXlJaAUAAADAbjikUql8UBwcsEu25aUbNmXDo5Vc+r1iEQAAAAD6Z1B2Vs24aHtqMjLPC6oAAAAA2AODElYBAAAAwGAQVgEAAABQGsIqAAAAAEpDWAUAAABAaQxCWPVurvz09uTVw3NTsQQAAAAAA7AHYdW7eXJ5S5qX/1vGto3KvFkfLU4AAAAAgAE5pFKpfFAcBAAAAID9YQ92VgEAAADA4BJWAQAAAFAawioAAAAASkNYBQAAAEBpCKsAAAAAKA1hFQAAAAClIawCAAAAoDT+P+GefNJo5TncAAAAAElFTkSuQmCC;" vertex="1" parent="1">
          <mxGeometry x="210" y="200" width="1195" height="418" as="geometry" />
        </mxCell>
        <mxCell id="P-TrzOALhq4Lv73_lyAl-3" value="" style="endArrow=classic;html=1;rounded=0;strokeColor=#ff0000;exitX=0;exitY=0.5;exitDx=0;exitDy=0;" edge="1" parent="1" source="P-TrzOALhq4Lv73_lyAl-4">
          <mxGeometry width="50" height="50" relative="1" as="geometry">
            <mxPoint x="734" y="170" as="sourcePoint" />
            <mxPoint x="590" y="229" as="targetPoint" />
            <Array as="points">
              <mxPoint x="670" y="250" />
            </Array>
          </mxGeometry>
        </mxCell>
        <mxCell id="P-TrzOALhq4Lv73_lyAl-4" value="&lt;font color=&quot;#ffffff&quot;&gt;&lt;span style=&quot;font-size: 18px;&quot;&gt;This parameter requires an array of key values that do not need to be checked if they are filled&amp;nbsp;&lt;/span&gt;&lt;/font&gt;" style="text;html=1;align=center;verticalAlign=middle;whiteSpace=wrap;rounded=0;" vertex="1" parent="1">
          <mxGeometry x="800" y="220" width="270" height="30" as="geometry" />
        </mxCell>
        <mxCell id="P-TrzOALhq4Lv73_lyAl-5" value="" style="endArrow=classic;html=1;rounded=0;strokeColor=#ff0000;exitX=0;exitY=0.5;exitDx=0;exitDy=0;" edge="1" parent="1" source="P-TrzOALhq4Lv73_lyAl-6">
          <mxGeometry width="50" height="50" relative="1" as="geometry">
            <mxPoint x="604" y="180" as="sourcePoint" />
            <mxPoint x="460" y="239" as="targetPoint" />
          </mxGeometry>
        </mxCell>
        <mxCell id="P-TrzOALhq4Lv73_lyAl-6" value="&lt;font color=&quot;#ffffff&quot;&gt;&lt;span style=&quot;font-size: 18px;&quot;&gt;This parameter holds all the data that needs to be checked&lt;/span&gt;&lt;/font&gt;" style="text;html=1;align=center;verticalAlign=middle;whiteSpace=wrap;rounded=0;" vertex="1" parent="1">
          <mxGeometry x="1030" y="280" width="192" height="30" as="geometry" />
        </mxCell>
        <mxCell id="P-TrzOALhq4Lv73_lyAl-7" value="" style="endArrow=classic;html=1;rounded=0;strokeColor=#ff0000;exitX=0;exitY=0.5;exitDx=0;exitDy=0;" edge="1" parent="1" source="P-TrzOALhq4Lv73_lyAl-8">
          <mxGeometry width="50" height="50" relative="1" as="geometry">
            <mxPoint x="804" y="230" as="sourcePoint" />
            <mxPoint x="660" y="289" as="targetPoint" />
          </mxGeometry>
        </mxCell>
        <mxCell id="P-TrzOALhq4Lv73_lyAl-8" value="&lt;font color=&quot;#ffffff&quot; style=&quot;font-size: 18px;&quot;&gt;Excludes the optional fields from the being checked&lt;/font&gt;" style="text;html=1;align=center;verticalAlign=middle;whiteSpace=wrap;rounded=0;" vertex="1" parent="1">
          <mxGeometry x="1030" y="350" width="222" height="30" as="geometry" />
        </mxCell>
        <mxCell id="P-TrzOALhq4Lv73_lyAl-9" value="" style="labelPosition=right;align=left;strokeWidth=2;shape=mxgraph.mockup.markup.curlyBrace;html=1;shadow=0;dashed=0;strokeColor=#FF0000;direction=north;flipH=0;" vertex="1" parent="1">
          <mxGeometry x="320" y="310" width="20" height="180" as="geometry" />
        </mxCell>
        <mxCell id="P-TrzOALhq4Lv73_lyAl-10" value="&lt;font color=&quot;#ffffff&quot; style=&quot;font-size: 16px;&quot;&gt;Depending on the data type, different validation checks are made to ensure they are not left blank&lt;/font&gt;" style="text;html=1;align=center;verticalAlign=middle;whiteSpace=wrap;rounded=0;" vertex="1" parent="1">
          <mxGeometry x="220" y="334" width="100" height="150" as="geometry" />
        </mxCell>
        <mxCell id="P-TrzOALhq4Lv73_lyAl-12" value="" style="endArrow=classic;html=1;rounded=0;strokeColor=#ff0000;exitX=0;exitY=0.5;exitDx=0;exitDy=0;" edge="1" parent="1" source="P-TrzOALhq4Lv73_lyAl-13">
          <mxGeometry width="50" height="50" relative="1" as="geometry">
            <mxPoint x="634" y="410" as="sourcePoint" />
            <mxPoint x="490" y="469" as="targetPoint" />
          </mxGeometry>
        </mxCell>
        <mxCell id="P-TrzOALhq4Lv73_lyAl-13" value="&lt;font color=&quot;#ffffff&quot; style=&quot;font-size: 18px;&quot;&gt;If a field is not filled, returns which field was not filled, so that the user can be informed appropriately.&lt;/font&gt;" style="text;html=1;align=center;verticalAlign=middle;whiteSpace=wrap;rounded=0;" vertex="1" parent="1">
          <mxGeometry x="670" y="470" width="230" height="30" as="geometry" />
        </mxCell>
        <mxCell id="P-TrzOALhq4Lv73_lyAl-14" value="" style="endArrow=classic;html=1;rounded=0;strokeColor=#ff0000;exitX=0;exitY=0.5;exitDx=0;exitDy=0;" edge="1" parent="1" source="P-TrzOALhq4Lv73_lyAl-15">
          <mxGeometry width="50" height="50" relative="1" as="geometry">
            <mxPoint x="630" y="480" as="sourcePoint" />
            <mxPoint x="430" y="579" as="targetPoint" />
          </mxGeometry>
        </mxCell>
        <mxCell id="P-TrzOALhq4Lv73_lyAl-15" value="&lt;font color=&quot;#ffffff&quot; style=&quot;font-size: 18px;&quot;&gt;returns the string &#39;success&#39; if the data passes all validation checks&lt;/font&gt;" style="text;html=1;align=center;verticalAlign=middle;whiteSpace=wrap;rounded=0;" vertex="1" parent="1">
          <mxGeometry x="670" y="550" width="540" height="30" as="geometry" />
        </mxCell>
      </root>
    </mxGraphModel>
  </diagram>
</mxfile>
